<svg id="svg" version="1.1" xmlns="http://www.w3.org/2000/svg" xmlns:xlink="http://www.w3.org/1999/xlink" width="400" height="303.951367781155" viewBox="0, 0, 400,303.951367781155"><g id="svgg"><path id="path0" d="M5.240 1.654 C 3.823 3.283,3.393 9.560,4.635 10.468 C 5.366 11.003,5.307 11.167,4.302 11.388 C 2.040 11.885,0.644 16.965,1.808 20.461 C 2.247 21.780,4.740 22.822,5.298 21.919 C 5.389 21.771,5.927 21.563,6.492 21.457 C 7.057 21.351,7.913 20.924,8.395 20.508 L 9.271 19.752 9.422 20.590 C 9.773 22.525,11.213 23.123,11.714 21.542 C 12.012 20.603,12.183 21.021,12.486 23.437 C 12.917 26.869,15.913 28.783,17.908 26.901 C 18.172 26.651,18.834 26.092,19.377 25.658 C 19.920 25.225,20.365 24.726,20.365 24.551 C 20.365 24.375,20.601 24.059,20.889 23.848 C 21.283 23.559,21.442 22.900,21.529 21.191 C 21.629 19.206,21.711 18.936,22.175 19.057 C 22.847 19.233,25.228 18.606,25.228 18.254 C 25.228 18.109,26.049 17.144,27.052 16.109 C 29.047 14.051,29.649 11.824,28.343 11.330 C 28.051 11.219,27.639 10.958,27.428 10.749 C 26.492 9.825,20.369 9.833,18.509 10.760 C 17.974 11.028,17.514 11.246,17.488 11.246 C 17.433 11.246,17.524 8.763,17.588 8.483 C 17.611 8.385,18.176 8.123,18.845 7.903 C 19.514 7.682,20.061 7.403,20.061 7.282 C 20.061 7.161,20.334 6.990,20.669 6.903 C 21.514 6.682,21.527 5.167,20.683 5.167 C 19.970 5.167,18.541 5.784,18.541 6.092 C 18.541 6.213,18.267 6.384,17.933 6.471 C 17.402 6.610,17.325 6.480,17.325 5.443 C 17.325 4.790,17.188 4.255,17.021 4.255 C 16.854 4.255,16.717 4.055,16.717 3.810 C 16.717 3.316,15.691 2.648,15.391 2.947 C 15.287 3.051,15.285 4.243,15.386 5.596 L 15.571 8.055 14.624 8.604 C 13.708 9.136,13.678 9.135,13.678 8.589 C 13.678 8.278,13.558 7.894,13.411 7.736 C 13.264 7.577,12.979 6.934,12.779 6.307 C 12.579 5.680,12.289 5.167,12.134 5.167 C 11.980 5.167,11.854 5.009,11.854 4.816 C 11.854 2.596,6.603 0.086,5.240 1.654 M62.081 1.645 C 61.704 2.043,61.310 2.795,61.206 3.318 C 61.101 3.840,60.897 4.342,60.751 4.432 C 60.213 4.764,60.464 8.351,61.121 9.711 C 61.752 11.016,61.619 11.530,60.648 11.545 C 60.149 11.553,58.931 13.170,58.753 14.061 C 58.660 14.526,58.465 14.980,58.319 15.070 C 57.854 15.357,58.023 18.990,58.553 20.090 C 59.395 21.840,61.216 22.769,62.173 21.937 C 62.332 21.799,63.036 21.506,63.738 21.286 C 64.440 21.066,65.085 20.700,65.172 20.473 C 65.476 19.680,66.157 20.070,66.436 21.197 C 66.772 22.557,67.477 22.793,68.361 21.844 L 68.997 21.162 68.997 22.569 C 68.997 23.343,69.134 24.061,69.301 24.164 C 69.468 24.267,69.605 24.603,69.605 24.911 C 69.605 26.775,73.245 28.232,74.577 26.900 C 74.827 26.649,75.154 26.444,75.302 26.444 C 75.528 26.444,76.421 25.503,77.792 23.820 C 78.310 23.184,78.775 20.885,78.587 19.887 C 78.426 19.024,78.475 18.916,78.974 19.047 C 79.724 19.243,82.067 18.606,82.067 18.206 C 82.067 18.034,82.823 17.150,83.747 16.240 C 87.385 12.659,86.341 10.370,80.938 10.086 C 78.391 9.953,74.772 10.480,74.772 10.984 C 74.772 11.128,74.566 11.246,74.314 11.246 C 73.938 11.246,73.921 11.141,74.219 10.663 C 74.498 10.217,74.500 9.979,74.227 9.651 C 73.758 9.086,74.700 8.034,75.913 7.767 C 76.945 7.540,78.419 6.249,78.419 5.571 C 78.419 4.907,76.464 5.229,75.307 6.085 C 74.268 6.853,73.861 6.655,73.856 5.377 C 73.849 3.703,73.546 3.040,72.790 3.040 C 72.109 3.040,72.097 3.091,72.261 5.481 C 72.409 7.638,72.361 7.974,71.853 8.359 C 70.827 9.136,70.284 8.918,70.068 7.643 C 69.690 5.406,66.629 1.520,65.245 1.520 C 64.988 1.520,64.693 1.383,64.590 1.216 C 64.245 0.658,62.779 0.908,62.081 1.645 M119.115 1.462 C 117.425 3.233,116.823 8.295,118.081 10.159 C 118.542 10.843,118.587 11.079,118.277 11.182 C 117.594 11.410,115.805 13.110,115.805 13.532 C 115.805 13.752,115.634 13.988,115.426 14.058 C 114.937 14.221,114.888 19.978,115.372 20.300 C 115.551 20.419,115.786 20.756,115.894 21.049 C 116.002 21.341,116.300 21.581,116.556 21.581 C 116.812 21.581,117.021 21.717,117.021 21.884 C 117.021 22.251,118.605 22.292,119.012 21.936 C 119.171 21.797,119.882 21.518,120.593 21.316 C 121.303 21.114,121.884 20.839,121.884 20.705 C 121.884 20.572,122.224 20.308,122.639 20.118 C 123.287 19.823,123.388 19.849,123.351 20.298 C 123.189 22.265,123.975 22.973,125.046 21.824 L 125.684 21.139 125.926 23.107 C 126.059 24.190,126.298 25.122,126.458 25.177 C 126.617 25.233,126.748 25.447,126.748 25.652 C 126.748 27.300,130.075 27.974,131.781 26.672 C 134.597 24.524,135.731 22.590,135.469 20.380 C 135.314 19.073,135.355 18.927,135.840 19.054 C 136.886 19.328,138.779 18.587,139.233 17.726 C 139.747 16.753,140.788 15.661,141.441 15.410 C 143.184 14.741,143.205 12.148,141.477 10.972 C 139.768 9.809,131.611 9.807,131.611 10.970 C 131.611 11.122,131.474 11.246,131.307 11.246 C 131.140 11.246,131.003 10.720,131.003 10.078 C 131.003 8.846,131.701 7.903,132.612 7.903 C 133.250 7.903,135.258 6.149,135.258 5.592 C 135.258 4.901,133.630 5.092,132.400 5.927 C 130.991 6.883,131.092 6.918,130.856 5.395 C 130.523 3.260,130.406 3.040,129.594 3.040 C 129.017 3.040,128.870 3.167,128.982 3.571 C 129.449 5.248,129.517 8.207,129.089 8.207 C 128.845 8.207,128.476 8.412,128.267 8.663 C 127.674 9.377,127.463 9.219,127.052 7.751 C 126.841 6.998,126.561 6.383,126.428 6.383 C 126.296 6.383,126.103 5.994,125.998 5.519 C 125.716 4.233,123.446 1.875,122.264 1.640 C 121.721 1.532,121.277 1.324,121.277 1.178 C 121.277 0.711,119.624 0.928,119.115 1.462 M175.883 1.468 C 175.606 1.773,175.380 2.172,175.380 2.354 C 175.380 2.536,175.239 2.732,175.067 2.789 C 173.938 3.166,174.091 9.393,175.258 10.560 C 175.704 11.006,175.660 11.080,174.726 11.452 C 170.751 13.038,170.879 22.188,174.877 22.188 C 175.301 22.188,175.722 22.069,175.812 21.924 C 175.902 21.778,176.395 21.575,176.907 21.473 C 177.420 21.370,178.291 20.942,178.842 20.522 C 180.158 19.518,180.243 19.544,180.243 20.955 C 180.243 22.453,180.673 22.738,181.742 21.948 L 182.575 21.332 182.897 23.411 C 183.354 26.361,184.217 27.356,186.321 27.356 C 187.821 27.356,188.495 26.972,190.485 24.987 C 191.991 23.485,192.951 20.125,192.113 19.286 C 191.931 19.103,192.379 18.989,193.328 18.975 C 194.843 18.952,196.353 18.047,196.353 17.162 C 196.353 16.963,196.893 16.425,197.554 15.967 C 200.582 13.869,200.250 11.225,196.844 10.300 C 195.131 9.835,190.330 10.110,189.056 10.746 C 187.766 11.389,187.841 11.429,187.847 10.106 C 187.853 8.652,188.046 8.383,189.438 7.885 C 190.065 7.660,190.578 7.383,190.578 7.269 C 190.578 7.155,190.851 6.990,191.185 6.903 C 192.031 6.682,192.043 5.167,191.200 5.167 C 190.486 5.167,189.058 5.784,189.058 6.092 C 189.058 7.191,187.891 6.440,187.726 5.236 C 187.510 3.662,187.101 3.040,186.285 3.040 C 185.652 3.040,185.424 5.256,186.018 5.623 C 186.827 6.123,186.329 8.044,185.251 8.580 C 184.323 9.042,184.195 9.049,184.195 8.637 C 184.195 8.079,182.828 5.022,182.291 4.379 C 180.808 2.602,179.949 1.838,179.236 1.659 C 178.784 1.545,178.339 1.331,178.247 1.182 C 177.952 0.706,176.403 0.893,175.883 1.468 M232.634 1.609 C 231.038 3.444,230.649 9.487,232.060 10.519 C 232.722 11.003,232.640 11.172,231.640 11.392 C 229.268 11.913,227.914 17.484,229.311 20.973 C 229.670 21.868,232.236 22.595,232.653 21.919 C 232.745 21.771,233.282 21.563,233.847 21.457 C 234.412 21.351,235.269 20.924,235.750 20.508 L 236.626 19.752 236.778 20.590 C 237.125 22.501,238.446 23.000,239.133 21.478 C 239.385 20.921,239.462 21.076,239.640 22.492 C 239.991 25.288,240.114 25.682,240.904 26.534 C 241.541 27.221,241.922 27.356,243.224 27.356 C 244.826 27.356,244.952 27.289,246.759 25.482 C 248.761 23.480,248.769 23.462,248.886 21.144 C 248.985 19.203,249.067 18.936,249.531 19.057 C 250.709 19.366,252.467 18.579,253.060 17.479 C 253.376 16.893,253.728 16.413,253.842 16.413 C 254.569 16.413,256.231 14.214,256.231 13.252 C 256.231 11.908,255.970 11.246,255.439 11.246 C 255.206 11.246,255.015 11.116,255.015 10.957 C 255.015 10.491,252.898 10.034,250.735 10.032 C 248.477 10.030,245.289 10.588,245.289 10.984 C 245.289 11.128,245.166 11.246,245.017 11.246 C 244.867 11.246,244.747 10.870,244.750 10.410 C 244.759 8.637,244.943 8.318,246.194 7.905 C 246.866 7.683,247.416 7.403,247.416 7.282 C 247.416 7.161,247.690 6.990,248.024 6.903 C 248.870 6.682,248.882 5.167,248.039 5.167 C 247.325 5.167,245.897 5.784,245.897 6.092 C 245.897 6.213,245.623 6.384,245.289 6.471 C 244.790 6.602,244.681 6.480,244.681 5.793 C 244.681 4.560,243.829 3.040,243.137 3.040 C 242.589 3.040,242.562 3.206,242.738 5.547 L 242.926 8.055 241.980 8.604 C 241.063 9.136,241.033 9.135,241.033 8.589 C 241.033 8.278,240.913 7.894,240.766 7.736 C 240.619 7.577,240.335 6.934,240.135 6.307 C 239.934 5.680,239.644 5.167,239.490 5.167 C 239.336 5.167,239.210 4.989,239.210 4.771 C 239.210 2.678,233.917 0.133,232.634 1.609 M289.436 1.645 C 289.060 2.043,288.666 2.795,288.561 3.318 C 288.457 3.840,288.252 4.342,288.107 4.432 C 287.568 4.764,287.820 8.351,288.477 9.711 C 289.108 11.016,288.975 11.530,288.004 11.545 C 287.505 11.553,286.287 13.170,286.109 14.061 C 286.016 14.526,285.821 14.980,285.675 15.070 C 285.306 15.298,285.342 19.375,285.714 19.605 C 285.881 19.708,286.018 20.049,286.018 20.362 C 286.018 21.497,288.648 22.684,289.529 21.947 C 289.688 21.814,290.344 21.526,290.988 21.308 C 291.632 21.090,292.451 20.619,292.808 20.262 L 293.456 19.614 293.630 20.683 C 293.948 22.641,294.629 23.012,295.733 21.827 L 296.353 21.162 296.353 22.569 C 296.353 23.343,296.489 24.061,296.657 24.164 C 296.824 24.267,296.960 24.607,296.960 24.919 C 296.960 26.812,300.578 28.254,301.932 26.900 C 302.183 26.649,302.510 26.444,302.658 26.444 C 302.884 26.444,303.777 25.503,305.148 23.820 C 305.673 23.175,306.105 20.967,305.910 19.925 C 305.737 19.001,305.780 18.903,306.308 19.041 C 307.106 19.250,309.422 18.604,309.422 18.173 C 309.422 17.984,310.177 17.104,311.098 16.219 C 314.758 12.702,313.691 10.370,308.293 10.086 C 305.747 9.953,302.128 10.480,302.128 10.984 C 302.128 11.128,301.921 11.246,301.669 11.246 C 301.293 11.246,301.276 11.141,301.575 10.663 C 301.854 10.217,301.856 9.979,301.583 9.651 C 301.114 9.086,302.055 8.034,303.269 7.767 C 304.274 7.546,305.775 6.255,305.775 5.611 C 305.775 4.940,304.529 5.070,302.960 5.904 C 301.402 6.732,301.218 6.674,301.212 5.344 C 301.204 3.703,300.898 3.040,300.145 3.040 C 299.464 3.040,299.453 3.091,299.617 5.481 C 299.765 7.638,299.717 7.974,299.208 8.359 C 298.177 9.140,297.639 8.918,297.420 7.622 C 296.732 3.547,291.410 -0.437,289.436 1.645 M346.277 1.703 C 345.900 2.132,345.593 2.665,345.593 2.888 C 345.593 3.111,345.422 3.350,345.213 3.419 C 344.528 3.648,344.707 9.084,345.434 10.159 C 345.897 10.843,345.943 11.079,345.633 11.182 C 344.949 11.410,343.161 13.110,343.161 13.532 C 343.161 13.752,342.990 13.988,342.781 14.058 C 342.293 14.221,342.243 19.978,342.727 20.300 C 342.907 20.419,343.142 20.756,343.250 21.049 C 343.358 21.341,343.655 21.581,343.911 21.581 C 344.167 21.581,344.377 21.717,344.377 21.884 C 344.377 22.052,344.787 22.188,345.289 22.188 C 345.790 22.188,346.201 22.069,346.201 21.923 C 346.201 21.778,346.738 21.572,347.395 21.467 C 348.052 21.362,348.773 21.093,348.997 20.869 C 349.835 20.030,350.715 19.712,350.560 20.303 C 350.133 21.936,351.423 22.972,352.436 21.809 L 353.031 21.125 353.253 23.097 C 353.375 24.182,353.616 25.116,353.789 25.174 C 353.962 25.231,354.103 25.447,354.103 25.652 C 354.103 27.300,357.430 27.974,359.137 26.672 C 360.433 25.683,361.702 24.437,361.702 24.153 C 361.702 24.018,361.941 23.644,362.234 23.320 C 362.621 22.893,362.766 22.216,362.766 20.837 C 362.766 19.248,362.845 18.962,363.253 19.069 C 364.249 19.329,366.145 18.566,366.589 17.726 C 367.103 16.753,368.144 15.661,368.797 15.410 C 370.540 14.741,370.561 12.148,368.833 10.972 C 367.124 9.809,358.967 9.807,358.967 10.970 C 358.967 11.122,358.830 11.246,358.663 11.246 C 357.354 11.246,358.683 8.191,360.182 7.753 C 361.098 7.485,362.614 6.122,362.614 5.566 C 362.614 4.901,360.959 5.110,359.755 5.927 C 358.371 6.866,358.443 6.873,358.231 5.775 C 358.134 5.274,357.975 4.453,357.879 3.951 C 357.745 3.260,357.537 3.040,357.017 3.040 C 356.175 3.040,355.847 3.331,356.193 3.771 C 356.701 4.419,356.902 8.207,356.429 8.207 C 356.194 8.207,355.831 8.412,355.623 8.663 C 355.030 9.377,354.818 9.219,354.407 7.751 C 354.197 6.998,353.916 6.383,353.784 6.383 C 353.652 6.383,353.458 5.994,353.354 5.519 C 353.072 4.233,350.802 1.875,349.620 1.640 C 349.077 1.532,348.632 1.324,348.632 1.178 C 348.632 0.576,346.932 0.955,346.277 1.703 M382.063 26.672 C 379.581 28.466,377.262 32.364,378.139 33.267 C 378.711 33.857,378.415 34.347,377.488 34.347 C 375.907 34.347,371.125 38.494,371.125 39.864 C 371.125 41.291,372.065 42.652,373.401 43.160 C 375.031 43.779,381.042 43.327,381.900 42.521 C 382.399 42.052,382.611 42.221,382.606 43.085 C 382.597 44.762,382.389 45.218,381.538 45.431 C 379.471 45.947,377.495 48.328,379.134 48.328 C 379.799 48.328,381.459 47.681,381.459 47.422 C 381.459 47.291,381.733 47.112,382.067 47.024 C 382.598 46.885,382.675 47.015,382.675 48.053 C 382.675 48.706,382.796 49.240,382.943 49.240 C 383.091 49.240,383.283 49.514,383.371 49.848 C 383.466 50.210,383.785 50.456,384.163 50.456 C 384.771 50.456,384.788 50.350,384.605 47.765 L 384.414 45.074 385.368 44.741 C 386.201 44.451,386.322 44.476,386.322 44.940 C 386.322 45.232,386.442 45.601,386.589 45.760 C 386.736 45.919,387.021 46.562,387.221 47.188 C 387.421 47.815,387.711 48.328,387.866 48.328 C 388.020 48.328,388.146 48.517,388.146 48.748 C 388.146 49.424,390.486 51.640,391.405 51.834 C 391.870 51.932,392.489 52.142,392.781 52.301 C 393.112 52.480,393.514 52.482,393.845 52.304 C 394.138 52.148,394.595 51.954,394.861 51.874 C 395.918 51.554,396.486 44.889,395.602 43.179 C 395.172 42.348,395.186 42.302,395.982 41.972 C 398.565 40.899,399.706 31.915,397.259 31.915 C 396.947 31.915,396.608 31.778,396.505 31.611 C 396.272 31.235,394.529 31.205,394.529 31.577 C 394.529 31.726,394.068 31.934,393.505 32.039 C 392.942 32.145,392.087 32.572,391.605 32.988 L 390.729 33.744 390.641 33.058 C 390.377 31.014,389.218 30.421,388.258 31.839 L 387.692 32.675 387.505 30.178 C 387.224 26.422,384.678 24.781,382.063 26.672 M5.053 51.934 C 3.918 53.188,3.527 57.971,4.391 60.038 C 4.798 61.013,4.788 61.113,4.246 61.403 C 2.317 62.436,1.465 64.279,1.469 67.411 C 1.473 70.840,2.215 72.036,4.338 72.036 C 5.570 72.036,6.318 71.740,8.768 70.278 C 9.376 69.915,9.422 69.949,9.422 70.749 C 9.422 72.300,10.900 72.948,11.572 71.691 C 12.048 70.803,12.451 71.470,12.457 73.157 C 12.474 77.634,16.081 78.898,19.439 75.602 C 21.064 74.008,21.581 72.829,21.581 70.717 L 21.581 69.074 23.131 68.925 C 24.376 68.806,24.820 68.604,25.388 67.899 C 26.344 66.713,26.793 66.251,27.918 65.301 C 30.179 63.391,28.930 60.843,25.385 60.131 C 23.521 59.757,18.785 60.219,18.592 60.793 C 18.316 61.613,17.414 61.064,17.465 60.106 C 17.542 58.642,17.882 58.114,18.889 57.893 C 20.071 57.633,21.634 56.115,21.385 55.468 C 21.281 55.196,21.002 55.055,20.757 55.150 C 20.514 55.243,20.131 55.319,19.906 55.319 C 19.681 55.319,19.309 55.506,19.080 55.735 C 18.148 56.667,17.325 56.646,17.325 55.690 C 17.325 54.410,16.484 52.888,15.777 52.888 C 15.218 52.888,15.197 53.047,15.388 55.775 C 15.564 58.280,15.528 58.663,15.115 58.663 C 14.854 58.663,14.423 58.746,14.159 58.847 C 13.814 58.979,13.678 58.850,13.678 58.391 C 13.678 58.039,13.556 57.751,13.408 57.751 C 13.259 57.751,13.053 57.298,12.949 56.745 C 12.279 53.173,6.899 49.894,5.053 51.934 M382.566 76.444 C 382.315 76.695,381.994 76.900,381.851 76.900 C 381.343 76.900,378.720 80.000,378.553 80.798 C 378.459 81.245,378.243 81.866,378.072 82.179 C 377.857 82.571,377.863 82.848,378.091 83.075 C 378.798 83.783,378.450 84.372,377.280 84.450 C 376.249 84.518,373.860 85.810,373.860 86.300 C 373.860 86.410,373.237 87.178,372.476 88.007 C 370.557 90.096,371.397 93.313,373.861 93.313 C 374.175 93.313,374.517 93.450,374.620 93.617 C 374.853 93.994,377.025 94.017,377.740 93.650 C 378.030 93.501,379.156 93.215,380.242 93.014 C 381.328 92.814,382.314 92.492,382.434 92.299 C 382.553 92.106,382.614 92.568,382.570 93.324 C 382.482 94.808,382.223 95.441,381.702 95.441 C 381.206 95.441,378.723 96.732,378.723 96.990 C 378.723 97.113,378.640 97.431,378.539 97.696 C 378.269 98.398,379.820 98.327,381.307 97.568 C 382.782 96.816,382.675 96.796,382.675 97.826 C 382.675 99.093,383.520 100.608,384.228 100.608 C 384.791 100.608,384.813 100.457,384.621 97.918 C 384.435 95.456,384.467 95.212,384.990 95.031 C 385.305 94.922,385.733 94.753,385.942 94.655 C 386.181 94.544,386.322 94.713,386.322 95.111 C 386.322 95.460,386.442 95.745,386.588 95.745 C 386.734 95.745,386.933 96.139,387.029 96.622 C 387.377 98.359,389.769 101.382,391.051 101.703 C 391.459 101.806,391.793 102.012,391.793 102.161 C 391.793 102.585,394.526 102.478,394.968 102.036 C 396.088 100.916,396.390 93.625,395.348 92.863 C 394.668 92.365,394.697 92.097,395.430 92.097 C 398.126 92.097,399.862 83.520,397.473 82.002 C 396.554 81.417,392.731 81.913,392.097 82.699 C 391.444 83.510,390.578 83.576,390.578 82.816 C 390.578 81.329,388.709 80.467,388.298 81.763 C 387.913 82.976,387.602 82.322,387.488 80.060 C 387.318 76.707,384.427 74.583,382.566 76.444 M5.255 101.824 C 5.168 102.158,4.989 102.432,4.858 102.432 C 3.585 102.432,3.676 110.192,4.958 111.007 C 5.202 111.162,5.149 111.238,4.798 111.242 C 1.334 111.272,-0.028 121.317,3.340 121.990 C 4.486 122.219,6.687 121.925,6.687 121.542 C 6.687 121.396,6.882 121.277,7.120 121.277 C 7.357 121.277,7.973 120.922,8.487 120.490 L 9.422 119.703 9.432 120.566 C 9.448 121.950,10.158 122.670,11.089 122.246 C 11.510 122.054,11.854 121.689,11.854 121.435 C 11.854 120.443,12.314 121.039,12.377 122.113 C 12.622 126.244,13.378 127.356,15.942 127.356 C 18.930 127.356,21.581 124.207,21.581 120.658 C 21.581 119.289,21.676 118.901,21.986 119.019 C 22.773 119.322,24.975 118.604,25.470 117.883 C 25.738 117.493,26.614 116.551,27.416 115.790 C 29.122 114.173,29.565 111.246,28.105 111.246 C 27.884 111.246,27.463 111.007,27.170 110.714 C 26.410 109.956,20.053 109.968,18.693 110.731 C 17.451 111.428,17.437 111.419,17.458 109.965 C 17.477 108.721,17.525 108.661,19.149 107.858 C 20.715 107.084,21.737 105.970,21.392 105.412 C 21.124 104.978,19.860 105.151,19.114 105.723 C 17.783 106.745,17.325 106.767,17.325 105.812 C 17.325 104.553,16.478 103.040,15.772 103.040 C 15.210 103.040,15.187 103.191,15.375 105.699 L 15.574 108.359 14.626 108.712 C 13.888 108.987,13.678 108.983,13.678 108.693 C 13.678 108.488,13.404 107.755,13.070 107.063 C 12.736 106.371,12.462 105.661,12.462 105.486 C 12.462 105.311,12.325 105.167,12.158 105.167 C 11.991 105.167,11.854 105.023,11.854 104.847 C 11.854 104.347,10.227 102.432,9.802 102.432 C 9.593 102.432,9.422 102.308,9.422 102.157 C 9.422 101.214,5.497 100.899,5.255 101.824 M383.435 126.091 C 380.684 126.999,376.957 132.050,378.139 133.267 C 378.724 133.870,378.413 134.347,377.432 134.351 C 375.979 134.358,371.125 138.628,371.125 139.899 C 371.125 141.087,372.028 142.603,372.943 142.948 C 373.447 143.139,373.860 143.401,373.860 143.532 C 373.860 143.859,378.648 143.833,378.851 143.505 C 378.940 143.360,379.530 143.155,380.160 143.049 C 380.791 142.944,381.581 142.782,381.915 142.690 C 382.440 142.546,382.534 142.687,382.604 143.729 C 382.686 144.935,382.685 144.936,380.744 145.853 C 379.213 146.576,378.769 146.941,378.648 147.574 C 378.425 148.739,378.996 148.787,380.957 147.770 L 382.675 146.879 382.675 148.059 C 382.675 148.709,382.796 149.240,382.943 149.240 C 383.091 149.240,383.283 149.514,383.371 149.848 C 383.466 150.212,383.785 150.456,384.168 150.456 C 384.779 150.456,384.798 150.351,384.623 147.948 L 384.440 145.441 385.381 144.923 C 386.176 144.486,386.322 144.475,386.322 144.851 C 386.322 145.096,386.449 145.535,386.604 145.825 C 386.760 146.115,387.188 147.014,387.556 147.823 C 389.121 151.258,393.600 153.688,395.071 151.900 C 395.941 150.842,396.296 144.955,395.609 142.956 C 395.424 142.418,395.551 142.208,396.292 141.825 C 398.202 140.837,399.207 135.944,398.119 132.934 C 397.681 131.723,395.890 131.289,393.853 131.899 C 392.649 132.260,392.333 132.450,391.164 133.511 C 390.393 134.210,390.330 134.186,390.507 133.261 C 390.868 131.374,389.692 130.573,388.390 131.820 L 387.538 132.637 387.538 130.776 C 387.538 127.257,385.825 125.302,383.435 126.091 M5.324 151.793 C 3.943 153.072,3.372 158.180,4.388 160.146 C 4.856 161.050,4.535 161.600,3.254 162.092 C 2.969 162.201,2.736 162.500,2.736 162.756 C 2.736 163.012,2.609 163.222,2.455 163.222 C 1.447 163.222,1.127 168.904,2.030 170.753 L 2.584 171.884 4.686 171.884 C 6.095 171.883,6.830 171.758,6.915 171.504 C 6.985 171.295,7.180 171.125,7.349 171.125 C 7.518 171.125,8.054 170.842,8.540 170.496 L 9.422 169.867 9.422 170.739 C 9.422 172.302,10.810 172.913,11.647 171.719 C 12.197 170.933,12.462 171.463,12.462 173.353 C 12.464 176.456,14.753 178.373,17.125 177.258 C 19.966 175.923,21.581 173.685,21.581 171.082 L 21.581 169.301 22.796 169.301 C 23.465 169.301,24.012 169.164,24.012 168.997 C 24.012 168.830,24.219 168.693,24.471 168.693 C 24.723 168.693,25.299 168.174,25.750 167.541 C 26.201 166.907,27.089 166.019,27.723 165.568 C 29.608 164.226,29.143 160.790,27.077 160.790 C 26.757 160.790,26.437 160.619,26.368 160.410 C 26.199 159.905,20.128 159.885,19.817 160.389 C 19.699 160.579,19.118 160.826,18.525 160.937 C 16.035 161.404,17.198 158.573,19.945 157.479 C 20.909 157.096,21.595 156.084,21.357 155.396 C 21.205 154.955,19.859 155.189,19.149 155.780 C 18.064 156.682,17.325 156.637,17.325 155.668 C 17.325 154.484,16.408 152.892,15.723 152.889 C 15.232 152.888,15.203 153.138,15.388 155.775 C 15.564 158.280,15.528 158.663,15.115 158.663 C 14.854 158.663,14.457 158.733,14.234 158.818 C 13.840 158.969,13.685 158.701,12.740 156.231 C 12.253 154.960,12.083 154.725,10.403 153.008 C 9.688 152.277,8.765 151.609,8.351 151.524 C 7.937 151.438,7.265 151.299,6.856 151.214 C 6.344 151.108,5.869 151.288,5.324 151.793 M382.675 176.444 C 382.467 176.695,382.161 176.900,381.995 176.900 C 381.452 176.900,378.718 180.002,378.543 180.817 C 378.449 181.254,378.212 181.941,378.016 182.345 C 377.738 182.917,377.743 183.106,378.040 183.206 C 378.862 183.482,378.373 184.149,377.204 184.347 C 376.535 184.459,375.988 184.677,375.988 184.829 C 375.988 184.982,375.787 185.106,375.542 185.106 C 375.296 185.106,374.442 185.918,373.642 186.910 C 372.843 187.902,371.949 188.800,371.657 188.906 C 370.485 189.330,371.258 191.922,372.879 193.009 C 374.140 193.854,378.303 194.081,379.707 193.381 C 380.086 193.192,380.886 192.912,381.487 192.757 L 382.579 192.477 382.551 193.731 C 382.524 194.942,382.466 195.012,380.851 195.789 C 379.293 196.538,378.257 197.668,378.608 198.235 C 378.799 198.544,380.158 198.558,380.294 198.252 C 380.350 198.127,380.908 197.787,381.535 197.497 L 382.675 196.970 382.697 197.953 C 382.723 199.122,383.612 200.760,384.219 200.760 C 384.568 200.760,384.630 200.224,384.543 197.948 C 384.444 195.350,384.480 195.137,385.014 195.137 C 385.332 195.137,385.757 194.973,385.957 194.772 C 386.241 194.488,386.322 194.523,386.322 194.928 C 386.322 195.215,386.456 195.686,386.618 195.977 C 386.781 196.267,387.127 196.983,387.386 197.568 C 388.287 199.600,389.778 201.520,390.455 201.520 C 390.662 201.520,390.883 201.677,390.947 201.870 C 391.109 202.354,394.419 202.597,394.942 202.163 C 396.110 201.194,396.392 193.626,395.290 192.820 C 394.754 192.428,394.752 192.401,395.261 192.401 C 397.606 192.401,399.448 186.475,398.157 183.081 C 397.366 181.001,392.499 181.493,390.711 183.834 C 390.471 184.148,390.422 183.967,390.520 183.127 C 390.664 181.892,390.307 181.471,389.105 181.464 C 388.646 181.461,388.336 181.675,388.234 182.067 C 387.914 183.290,387.538 182.627,387.538 180.841 C 387.538 177.142,384.428 174.331,382.675 176.444 M5.255 201.824 C 5.168 202.158,4.982 202.432,4.842 202.432 C 3.599 202.432,3.704 210.210,4.958 211.007 C 5.200 211.161,5.144 211.238,4.787 211.242 C 4.495 211.244,4.255 211.383,4.255 211.550 C 4.255 211.717,4.075 211.854,3.854 211.854 C 1.964 211.854,0.680 217.766,1.923 220.741 C 2.799 222.838,7.188 222.382,9.136 219.991 C 9.582 219.444,9.602 219.472,9.484 220.485 C 9.318 221.907,9.974 222.614,11.073 222.197 C 11.503 222.033,11.854 221.691,11.854 221.436 C 11.854 220.436,12.313 221.043,12.366 222.114 C 12.610 227.043,14.757 228.925,17.863 226.932 C 20.608 225.172,21.581 223.609,21.581 220.960 C 21.581 219.411,21.661 219.115,22.040 219.260 C 22.845 219.569,24.279 219.101,25.058 218.276 C 26.574 216.669,27.297 215.942,28.078 215.242 C 29.494 213.971,29.197 211.751,27.508 210.982 C 27.006 210.754,26.358 210.447,26.068 210.299 C 25.387 209.953,20.755 209.948,20.542 210.293 C 20.453 210.438,19.932 210.632,19.384 210.723 C 18.837 210.815,18.184 210.972,17.933 211.071 C 17.033 211.428,17.333 208.787,18.237 208.398 C 18.655 208.219,19.065 207.992,19.149 207.894 C 19.233 207.796,19.732 207.542,20.258 207.329 C 21.317 206.902,21.845 205.553,21.070 205.256 C 20.623 205.085,17.958 206.283,17.558 206.835 C 17.435 207.004,17.332 206.562,17.330 205.851 C 17.327 205.141,17.188 204.559,17.021 204.559 C 16.854 204.559,16.717 204.286,16.717 203.951 C 16.717 203.617,16.592 203.343,16.438 203.343 C 16.285 203.343,15.937 203.258,15.665 203.154 C 15.222 202.984,15.191 203.246,15.372 205.661 L 15.574 208.359 14.626 208.712 C 13.778 209.028,13.678 209.006,13.678 208.502 C 13.678 208.192,13.551 207.860,13.396 207.764 C 13.241 207.669,12.948 207.079,12.744 206.455 C 12.540 205.830,12.291 205.251,12.189 205.167 C 12.088 205.084,11.619 204.447,11.149 203.753 C 10.678 203.060,10.063 202.408,9.782 202.305 C 9.501 202.202,8.929 201.917,8.511 201.671 C 7.341 200.984,5.452 201.073,5.255 201.824 M383.131 226.361 C 381.390 226.793,378.419 229.997,378.419 231.444 C 378.419 231.803,378.255 232.261,378.055 232.462 C 377.771 232.746,377.771 232.908,378.055 233.191 C 378.648 233.785,378.473 234.347,377.694 234.347 C 376.198 234.347,371.125 238.694,371.125 239.976 C 371.125 240.726,371.799 242.553,372.076 242.553 C 372.197 242.553,372.537 242.793,372.830 243.085 C 373.466 243.719,379.787 243.887,380.178 243.281 C 380.298 243.096,380.879 242.856,381.470 242.747 L 382.545 242.550 382.593 243.752 C 382.631 244.701,382.517 244.994,382.050 245.142 C 381.725 245.245,381.459 245.436,381.459 245.565 C 381.459 245.695,380.925 245.961,380.272 246.156 C 379.372 246.426,379.006 246.736,378.763 247.434 C 378.300 248.763,379.059 248.939,380.867 247.923 C 382.657 246.917,382.675 246.917,382.675 248.000 C 382.675 249.167,383.598 250.756,384.277 250.758 C 384.768 250.760,384.797 250.509,384.612 247.872 C 384.436 245.368,384.472 244.985,384.885 244.985 C 385.146 244.985,385.543 244.915,385.766 244.829 C 386.160 244.678,386.315 244.946,387.260 247.416 C 387.749 248.693,387.890 248.885,389.749 250.807 L 391.200 252.307 393.233 252.217 L 395.266 252.128 395.644 250.304 C 396.115 248.032,396.157 244.236,395.720 243.420 C 395.439 242.893,395.584 242.617,396.744 241.473 C 398.240 239.999,398.480 239.265,398.480 236.178 C 398.480 232.653,397.764 231.611,395.343 231.611 C 394.297 231.611,391.572 232.918,390.967 233.710 C 390.654 234.119,390.595 234.027,390.587 233.116 C 390.572 231.380,389.185 230.625,388.379 231.915 C 387.767 232.896,387.538 232.627,387.536 230.927 C 387.532 227.162,386.059 225.635,383.131 226.361 M5.137 251.955 C 3.905 253.316,3.466 258.485,4.426 260.326 C 4.919 261.271,4.495 262.006,3.458 262.006 C 3.250 262.006,2.994 262.280,2.888 262.614 C 2.781 262.948,2.578 263.222,2.435 263.222 C 1.100 263.222,1.226 270.831,2.577 271.804 C 3.436 272.422,7.327 271.824,8.055 270.962 C 8.680 270.221,9.422 270.191,9.432 270.906 C 9.454 272.426,10.505 273.024,11.405 272.029 C 12.095 271.267,12.451 271.691,12.457 273.283 C 12.463 274.705,13.004 276.226,13.778 277.000 C 14.500 277.722,17.335 277.932,17.553 277.280 C 17.623 277.071,17.849 276.900,18.056 276.900 C 19.423 276.900,21.581 273.283,21.581 270.992 L 21.581 269.378 23.051 269.237 C 24.389 269.108,25.836 268.242,25.836 267.569 C 25.836 267.452,26.520 266.714,27.356 265.929 C 29.783 263.650,29.357 261.130,26.461 260.641 C 25.785 260.527,25.154 260.309,25.060 260.156 C 24.835 259.792,22.027 259.797,21.348 260.162 C 20.849 260.431,18.261 261.094,17.713 261.094 C 16.468 261.094,17.600 258.811,19.301 257.892 C 21.098 256.921,21.509 256.364,21.140 255.403 C 20.997 255.030,20.868 254.998,20.598 255.268 C 20.403 255.463,20.031 255.626,19.772 255.630 C 19.513 255.634,18.959 255.904,18.541 256.231 C 17.518 257.031,17.325 256.991,17.325 255.974 C 17.325 254.721,16.479 253.191,15.787 253.191 C 15.241 253.191,15.217 253.367,15.398 255.927 C 15.587 258.584,15.574 258.663,14.939 258.663 C 14.580 258.663,14.286 258.799,14.286 258.967 C 14.286 259.134,14.149 259.271,13.982 259.271 C 13.815 259.271,13.678 258.997,13.678 258.663 C 13.678 258.328,13.541 258.055,13.374 258.055 C 13.207 258.055,13.070 257.802,13.070 257.492 C 13.070 254.046,7.049 249.844,5.137 251.955 M41.413 276.605 C 41.037 276.756,40.729 277.021,40.729 277.194 C 40.729 277.366,40.558 277.508,40.349 277.508 C 39.943 277.508,38.556 278.874,38.190 279.635 C 38.069 279.886,37.772 280.433,37.531 280.851 C 37.289 281.269,37.089 282.164,37.087 282.840 C 37.082 284.015,37.019 284.096,35.678 284.649 C 32.789 285.840,28.426 291.489,30.395 291.489 C 30.562 291.489,30.699 291.669,30.699 291.888 C 30.699 293.788,37.251 294.456,40.299 292.867 C 41.570 292.205,41.641 292.253,41.641 293.769 C 41.641 294.782,41.523 295.137,41.185 295.137 C 40.935 295.137,40.729 295.246,40.729 295.380 C 40.729 295.513,40.237 295.801,39.635 296.018 C 38.381 296.472,37.386 297.359,37.386 298.024 C 37.386 298.611,39.006 298.641,39.582 298.064 C 40.852 296.795,41.932 297.219,41.941 298.990 C 41.945 299.891,42.585 300.912,43.146 300.912 C 43.600 300.912,44.068 300.116,43.784 299.826 C 43.096 299.122,43.273 295.294,43.997 295.192 C 44.373 295.138,44.681 294.967,44.681 294.812 C 44.681 293.975,45.328 294.718,45.624 295.897 C 45.814 296.649,46.062 297.264,46.176 297.264 C 46.289 297.264,46.545 297.713,46.743 298.261 C 47.990 301.710,53.431 303.973,54.214 301.368 C 54.365 300.866,54.637 300.136,54.818 299.745 C 55.250 298.812,55.268 293.969,54.841 293.683 C 54.304 293.324,54.074 292.401,54.522 292.401 C 56.992 292.401,58.731 285.326,56.894 282.751 C 56.211 281.793,52.584 281.166,52.584 282.006 C 52.584 282.139,52.105 282.422,51.520 282.633 C 50.935 282.845,50.456 283.141,50.456 283.292 C 50.456 283.442,50.176 283.715,49.834 283.898 C 49.285 284.192,49.219 284.148,49.273 283.529 C 49.453 281.483,48.521 280.702,47.327 281.896 C 46.946 282.276,46.869 282.103,46.729 280.567 C 46.407 277.015,44.301 275.445,41.413 276.605 M98.462 276.541 C 97.627 276.905,95.698 278.678,94.768 279.938 C 94.197 280.711,93.750 283.008,94.029 283.735 C 94.149 284.046,94.019 284.195,93.625 284.195 C 93.306 284.195,92.967 284.321,92.872 284.475 C 92.776 284.629,92.324 284.838,91.866 284.939 C 91.388 285.045,90.450 285.792,89.666 286.692 C 88.913 287.554,87.990 288.558,87.614 288.922 C 86.066 290.419,87.502 293.047,90.182 293.620 C 91.813 293.968,96.076 293.598,96.782 293.047 C 97.661 292.361,98.816 292.356,98.412 293.041 C 98.103 293.563,98.101 293.724,98.404 293.834 C 99.384 294.189,98.317 295.334,96.390 295.995 C 95.296 296.371,94.225 297.397,94.225 298.071 C 94.225 298.735,95.676 298.546,97.133 297.692 C 98.625 296.818,98.631 296.823,98.888 299.056 C 99.035 300.335,99.435 300.897,100.204 300.907 C 100.462 300.911,100.513 300.134,100.390 298.068 L 100.220 295.224 101.096 295.056 C 102.212 294.843,102.340 294.934,102.597 296.128 C 103.835 301.868,110.768 304.966,111.418 300.068 C 111.534 299.195,111.748 298.480,111.893 298.480 C 112.413 298.480,112.174 294.975,111.571 293.747 L 110.985 292.553 111.647 292.250 C 112.649 291.792,113.699 290.547,113.890 289.592 C 113.984 289.124,114.179 288.668,114.325 288.578 C 114.694 288.350,114.658 284.273,114.286 284.043 C 114.119 283.939,113.982 283.610,113.982 283.312 C 113.982 281.406,108.824 281.356,107.295 283.247 C 106.905 283.729,105.975 284.325,106.203 283.947 C 106.335 283.727,106.355 283.077,106.247 282.503 C 106.022 281.302,104.568 280.974,103.976 281.991 C 103.736 282.402,103.664 282.165,103.657 280.945 C 103.652 280.077,103.511 279.283,103.343 279.179 C 103.176 279.076,103.040 278.746,103.040 278.446 C 103.040 276.862,100.321 275.731,98.462 276.541 M154.255 277.280 C 151.631 279.436,150.468 281.644,150.962 283.534 C 151.098 284.054,151.002 284.195,150.509 284.195 C 150.165 284.195,149.806 284.321,149.711 284.475 C 149.615 284.629,149.147 284.841,148.670 284.946 C 148.159 285.058,147.318 285.713,146.622 286.540 C 145.972 287.312,145.047 288.319,144.566 288.778 C 142.886 290.382,144.250 293.032,147.068 293.636 C 148.607 293.966,153.462 293.532,153.797 293.034 C 154.382 292.164,155.319 292.496,155.309 293.569 C 155.298 294.944,154.820 295.603,153.643 295.872 C 151.433 296.375,150.408 298.354,152.390 298.291 C 153.036 298.270,153.651 298.119,153.758 297.956 C 154.415 296.949,155.319 296.938,155.341 297.938 C 155.368 299.150,156.238 300.722,156.960 300.862 C 157.443 300.956,157.469 300.718,157.273 298.051 C 157.071 295.297,157.092 295.137,157.648 295.137 C 157.972 295.137,158.401 294.973,158.602 294.772 C 158.886 294.488,158.967 294.542,158.967 295.015 C 158.967 295.350,159.087 295.753,159.234 295.912 C 159.381 296.071,159.665 296.714,159.865 297.340 C 160.066 297.967,160.322 298.480,160.436 298.480 C 160.549 298.480,160.822 298.887,161.042 299.384 C 161.947 301.428,165.023 302.885,167.253 302.325 C 168.928 301.904,169.272 293.711,167.660 292.634 C 167.466 292.505,167.609 292.409,167.997 292.406 C 170.736 292.387,172.457 284.772,170.282 282.295 C 169.320 281.200,166.294 281.759,163.906 283.474 C 163.241 283.951,163.222 283.940,163.222 283.077 C 163.222 281.531,161.242 280.677,160.878 282.067 C 160.559 283.290,160.182 282.627,160.182 280.841 C 160.182 276.506,157.303 274.776,154.255 277.280 M211.223 277.136 C 209.675 278.314,208.525 279.626,208.318 280.447 C 208.221 280.837,208.019 281.155,207.870 281.155 C 207.721 281.155,207.598 281.805,207.596 282.599 C 207.594 284.001,206.904 284.802,205.698 284.802 C 205.357 284.802,203.343 286.413,203.343 286.685 C 203.343 286.801,202.642 287.587,201.785 288.431 C 200.646 289.551,200.308 290.068,200.532 290.347 C 200.700 290.558,200.938 291.071,201.061 291.489 C 201.706 293.686,208.241 294.768,210.463 293.047 C 211.527 292.222,212.158 292.437,212.158 293.623 C 212.158 294.877,211.116 296.049,210.001 296.049 C 209.304 296.049,208.207 297.199,208.207 297.930 C 208.207 298.674,209.318 298.646,210.486 297.872 C 211.786 297.012,212.055 297.106,212.278 298.500 C 212.491 299.834,213.428 301.102,213.958 300.774 C 214.371 300.519,214.390 298.277,213.982 298.024 C 213.112 297.487,213.655 295.293,214.742 294.953 C 215.608 294.682,215.805 294.698,215.805 295.043 C 215.805 299.399,223.227 304.711,224.747 301.444 C 225.829 299.120,226.007 294.085,225.035 293.279 C 224.484 292.822,224.508 292.401,225.086 292.401 C 225.342 292.401,225.630 292.196,225.726 291.945 C 225.822 291.695,226.091 291.489,226.324 291.489 C 226.557 291.489,226.748 291.362,226.748 291.207 C 226.748 291.052,226.959 290.714,227.217 290.455 C 228.459 289.213,228.418 283.713,227.156 282.318 C 226.622 281.728,223.100 281.481,223.100 282.034 C 223.100 282.183,222.784 282.384,222.396 282.482 C 222.009 282.579,221.373 282.935,220.982 283.274 C 219.969 284.154,219.757 284.050,219.757 282.675 C 219.757 281.328,218.567 280.892,217.791 281.953 C 217.493 282.361,217.371 282.037,217.102 280.115 C 216.569 276.319,214.004 275.019,211.223 277.136 M268.845 276.578 C 268.118 276.875,265.825 278.991,265.533 279.635 C 265.419 279.886,265.128 280.433,264.886 280.851 C 264.644 281.269,264.444 282.158,264.440 282.827 C 264.433 284.029,263.647 284.802,262.433 284.802 C 261.547 284.802,257.447 289.488,257.447 290.502 C 257.447 291.045,257.584 291.489,257.751 291.489 C 257.918 291.489,258.055 291.669,258.055 291.888 C 258.055 293.788,264.607 294.456,267.654 292.867 C 268.925 292.205,268.997 292.253,268.997 293.769 C 268.997 294.782,268.879 295.137,268.541 295.137 C 268.290 295.137,268.085 295.246,268.085 295.380 C 268.085 295.513,267.593 295.801,266.990 296.018 C 265.736 296.472,264.742 297.359,264.742 298.024 C 264.742 298.611,266.361 298.641,266.938 298.064 C 268.208 296.795,269.288 297.219,269.296 298.990 C 269.301 300.006,270.042 301.023,270.628 300.819 C 270.999 300.689,271.003 300.337,270.671 297.188 C 270.477 295.346,270.510 295.137,270.994 295.137 C 271.290 295.137,271.770 294.922,272.060 294.660 C 272.548 294.218,272.602 294.257,272.797 295.192 C 273.419 298.181,276.285 301.928,278.229 302.292 C 280.204 302.663,281.269 302.368,281.570 301.368 C 281.721 300.866,281.995 300.131,282.179 299.734 C 282.614 298.797,282.628 293.969,282.197 293.682 C 281.720 293.365,281.422 292.401,281.801 292.401 C 284.321 292.401,286.109 285.358,284.250 282.751 C 283.567 281.793,279.939 281.166,279.939 282.006 C 279.939 282.139,279.460 282.422,278.875 282.633 C 278.290 282.845,277.812 283.141,277.812 283.292 C 277.812 283.442,277.528 283.717,277.181 283.903 C 276.645 284.190,276.559 284.157,276.608 283.686 C 276.832 281.539,275.903 280.675,274.682 281.896 C 274.302 282.276,274.224 282.103,274.085 280.567 C 273.766 277.054,271.642 275.437,268.845 276.578 M325.818 276.541 C 325.067 276.868,323.261 278.497,322.239 279.768 C 321.719 280.415,321.277 281.961,321.277 283.133 C 321.277 283.959,319.762 285.106,318.672 285.106 C 318.579 285.106,317.544 286.098,316.371 287.310 C 313.879 289.885,313.688 291.011,315.462 292.668 C 316.836 293.952,322.655 294.204,324.141 293.045 C 325.017 292.360,326.171 292.358,325.767 293.041 C 325.459 293.563,325.457 293.724,325.760 293.834 C 326.722 294.182,325.677 295.333,323.821 295.969 C 322.569 296.399,321.581 297.268,321.581 297.940 C 321.581 298.740,322.892 298.628,324.489 297.692 C 325.980 296.818,325.986 296.823,326.244 299.056 C 326.392 300.344,326.872 301.008,327.508 300.804 C 327.691 300.745,327.769 299.622,327.704 297.963 L 327.596 295.220 328.462 295.054 C 329.505 294.855,329.787 294.997,329.787 295.720 C 329.787 297.352,332.822 301.490,334.481 302.121 C 337.064 303.103,338.460 302.433,338.774 300.062 C 338.891 299.184,339.105 298.393,339.250 298.304 C 339.573 298.104,339.605 294.529,339.284 294.529 C 338.649 294.529,338.389 292.413,339.000 292.219 C 339.884 291.939,341.049 290.576,341.246 289.592 C 341.339 289.124,341.535 288.668,341.681 288.578 C 342.236 288.234,341.922 284.394,341.236 283.131 C 340.231 281.280,336.306 281.357,334.650 283.260 C 334.212 283.763,333.338 284.313,333.558 283.947 C 333.691 283.727,333.711 283.077,333.603 282.503 C 333.378 281.302,331.924 280.974,331.331 281.991 C 331.092 282.402,331.019 282.165,331.012 280.945 C 331.007 280.077,330.866 279.283,330.699 279.179 C 330.532 279.076,330.395 278.746,330.395 278.446 C 330.395 276.862,327.677 275.731,325.818 276.541 M381.611 277.280 C 379.655 278.886,378.754 280.024,378.541 281.155 C 378.430 281.740,378.200 282.396,378.028 282.612 C 377.812 282.884,377.824 283.113,378.068 283.356 C 378.587 283.876,378.497 284.195,377.829 284.195 C 377.505 284.195,377.161 284.321,377.066 284.475 C 376.971 284.629,376.503 284.841,376.026 284.946 C 375.514 285.058,374.674 285.713,373.977 286.540 C 373.328 287.312,372.401 288.321,371.917 288.782 C 370.185 290.435,371.540 293.017,374.467 293.645 C 375.987 293.971,380.296 293.577,380.976 293.049 C 381.920 292.317,382.573 292.471,382.600 293.431 C 382.640 294.844,382.117 295.666,381.042 295.880 C 378.826 296.320,377.731 298.355,379.746 298.291 C 380.391 298.270,381.007 298.119,381.113 297.956 C 381.737 297.000,382.675 296.935,382.675 297.847 C 382.675 299.416,383.523 300.896,384.429 300.907 C 384.728 300.911,384.769 300.264,384.612 298.024 C 384.436 295.520,384.472 295.137,384.885 295.137 C 385.146 295.137,385.550 295.064,385.781 294.975 C 386.057 294.869,386.352 295.208,386.642 295.963 C 388.585 301.034,392.466 303.926,395.010 302.199 C 396.349 301.290,396.354 293.527,395.015 292.634 C 394.822 292.505,394.963 292.409,395.349 292.406 C 397.982 292.388,399.821 284.403,397.657 282.388 C 396.983 281.760,393.617 281.437,393.617 282.000 C 393.617 282.131,393.241 282.398,392.781 282.595 C 392.321 282.791,391.638 283.180,391.261 283.458 C 390.593 283.954,390.578 283.945,390.578 283.077 C 390.578 281.531,388.597 280.677,388.234 282.067 C 387.914 283.290,387.538 282.627,387.538 280.841 C 387.538 276.506,384.659 274.776,381.611 277.280 " stroke="none" fill="RGBA(252, 252, 252, 0.1)" fill-rule="evenodd"></path><path id="path1" d="M42.386 1.614 C 41.142 2.943,40.936 3.400,40.758 5.209 L 40.578 7.049 39.732 6.383 C 38.567 5.464,37.864 6.010,38.085 7.662 C 38.258 8.947,37.787 9.222,37.153 8.207 C 36.944 7.872,36.580 7.599,36.345 7.599 C 36.110 7.599,35.861 7.432,35.793 7.227 C 35.493 6.326,31.169 6.544,30.526 7.492 C 29.674 8.750,29.674 13.721,30.526 15.046 C 31.350 16.326,32.414 17.325,32.956 17.325 C 33.458 17.325,33.278 18.220,32.697 18.606 C 32.119 18.990,32.092 23.804,32.660 25.002 C 33.724 27.245,35.924 28.166,37.191 26.900 C 37.441 26.649,37.781 26.444,37.945 26.444 C 38.109 26.444,38.600 25.999,39.035 25.456 C 39.471 24.913,39.980 24.284,40.166 24.058 C 40.685 23.432,41.872 21.122,41.991 20.508 C 42.111 19.891,43.772 19.647,44.139 20.192 C 44.406 20.588,44.141 22.709,43.715 23.592 C 43.035 25.004,44.065 26.104,45.100 25.069 C 45.426 24.743,45.594 24.044,45.597 23.003 C 45.600 22.137,45.703 21.585,45.825 21.775 C 46.067 22.151,49.256 23.186,49.480 22.961 C 50.004 22.438,49.072 21.346,47.451 20.584 C 45.682 19.753,45.655 19.721,45.700 18.531 C 45.735 17.588,45.845 17.363,46.201 17.506 C 46.451 17.607,47.169 17.762,47.796 17.851 C 48.423 17.940,48.936 18.132,48.936 18.277 C 48.936 18.599,54.315 18.634,54.458 18.313 C 54.514 18.188,55.175 17.880,55.927 17.629 C 57.510 17.101,57.785 16.373,57.015 14.749 C 56.751 14.193,56.535 13.595,56.535 13.419 C 56.535 12.310,52.755 9.422,51.302 9.422 L 50.304 9.422 50.304 7.396 C 50.304 6.045,50.177 5.328,49.924 5.243 C 49.715 5.174,49.544 4.919,49.544 4.678 C 49.544 4.022,46.915 1.520,46.227 1.520 C 45.898 1.520,45.544 1.383,45.441 1.216 C 45.087 0.644,43.045 0.910,42.386 1.614 M98.987 1.771 C 98.062 2.736,97.568 4.156,97.568 5.849 C 97.568 7.164,97.478 7.213,96.582 6.378 C 95.650 5.510,95.302 5.765,95.196 7.395 C 95.145 8.176,95.037 8.815,94.956 8.815 C 94.730 8.815,92.885 7.486,92.644 7.150 C 92.126 6.425,87.927 6.578,87.430 7.339 C 85.589 10.153,87.288 17.325,89.794 17.325 C 90.245 17.325,90.246 17.388,89.809 18.055 C 89.159 19.048,88.886 22.704,89.330 24.468 C 90.225 28.023,93.333 28.353,96.085 25.187 C 97.390 23.686,97.374 23.711,98.311 21.724 C 99.197 19.847,99.203 19.843,100.988 20.036 C 101.306 20.071,101.274 21.701,100.947 22.052 C 100.379 22.663,100.231 25.219,100.752 25.419 C 101.606 25.747,102.432 24.664,102.432 23.219 L 102.432 21.911 103.686 22.354 C 104.375 22.597,105.274 22.796,105.682 22.796 C 106.797 22.796,106.523 21.539,105.319 21.133 C 104.818 20.963,104.227 20.652,104.006 20.443 C 103.785 20.233,103.420 20.061,103.195 20.061 C 102.670 20.061,102.533 19.626,102.675 18.410 L 102.790 17.433 104.116 17.770 C 104.845 17.955,105.539 18.204,105.659 18.324 C 105.958 18.622,111.246 18.600,111.246 18.300 C 111.246 18.168,111.862 17.895,112.614 17.693 C 116.245 16.722,112.083 9.422,107.898 9.422 C 106.774 9.422,106.693 9.371,106.980 8.835 C 107.370 8.107,107.386 6.852,107.016 6.151 C 106.863 5.861,106.571 5.173,106.366 4.623 C 105.946 3.489,103.811 1.520,103.003 1.520 C 102.708 1.520,102.383 1.383,102.280 1.216 C 101.864 0.543,99.835 0.885,98.987 1.771 M155.850 1.682 C 155.332 2.162,154.946 2.910,154.825 3.665 C 154.719 4.331,154.513 4.950,154.367 5.040 C 154.222 5.130,154.103 5.533,154.103 5.935 C 154.103 6.681,153.324 6.701,152.835 5.969 C 152.413 5.337,151.672 6.443,151.667 7.712 C 151.665 8.402,151.562 8.829,151.439 8.662 C 150.180 6.943,146.019 6.016,144.511 7.118 C 143.790 7.645,143.479 12.728,144.051 14.638 C 144.321 15.539,145.953 17.276,146.706 17.465 C 146.832 17.497,146.001 20.361,145.810 20.553 C 145.498 20.865,145.541 23.337,145.862 23.535 C 146.010 23.627,146.222 24.182,146.332 24.769 C 146.941 28.013,149.939 28.225,152.901 25.234 C 153.885 24.239,155.324 21.734,155.959 19.909 C 156.075 19.574,156.184 19.472,156.201 19.681 C 156.217 19.890,156.583 20.061,157.014 20.061 L 157.796 20.061 157.582 22.796 C 157.453 24.449,157.481 25.532,157.653 25.532 C 158.247 25.532,158.878 24.726,159.274 23.459 C 159.623 22.347,159.781 22.175,160.314 22.335 C 163.637 23.333,164.419 22.288,161.474 20.785 C 159.812 19.937,159.722 19.831,159.634 18.637 L 159.542 17.382 160.850 17.699 C 161.570 17.874,162.288 18.135,162.447 18.279 C 162.816 18.614,167.565 18.623,167.948 18.290 C 168.107 18.152,168.816 17.857,169.523 17.635 C 170.231 17.413,170.876 17.013,170.958 16.747 C 171.134 16.168,170.666 13.970,170.310 13.709 C 170.173 13.608,169.860 13.138,169.615 12.664 C 169.076 11.620,167.321 10.030,166.707 10.030 C 166.462 10.030,166.261 9.894,166.261 9.726 C 166.261 9.559,165.679 9.422,164.967 9.422 L 163.673 9.422 163.783 8.043 C 164.013 5.158,162.310 2.206,160.104 1.660 C 159.642 1.546,159.190 1.331,159.098 1.182 C 158.731 0.589,156.689 0.904,155.850 1.682 M213.060 1.301 C 211.979 2.159,211.247 3.970,211.211 5.868 C 211.192 6.904,211.113 7.510,211.036 7.215 C 210.544 5.331,208.397 5.730,208.553 7.677 L 208.663 9.045 207.751 8.317 C 207.249 7.917,206.637 7.421,206.391 7.214 C 206.123 6.989,205.026 6.839,203.656 6.839 L 201.368 6.839 201.077 7.827 C 200.917 8.370,200.678 8.815,200.545 8.815 C 200.412 8.815,200.304 9.977,200.304 11.398 C 200.304 12.819,200.424 13.982,200.570 13.982 C 200.716 13.982,200.915 14.376,201.011 14.857 C 201.107 15.338,201.393 15.920,201.646 16.149 C 202.678 17.083,203.030 17.325,203.351 17.325 C 203.715 17.325,203.474 18.480,203.005 18.982 C 202.857 19.141,202.736 20.380,202.736 21.736 C 202.736 27.862,206.116 29.287,210.027 24.811 C 211.029 23.665,212.462 21.034,212.462 20.341 C 212.462 20.039,212.599 19.708,212.766 19.605 C 212.933 19.502,213.070 19.570,213.070 19.758 C 213.070 19.946,213.378 20.056,213.754 20.004 C 214.427 19.910,214.436 19.954,214.342 22.747 L 214.246 25.585 214.950 25.369 C 215.874 25.085,215.799 25.219,216.006 23.473 L 216.188 21.939 217.403 22.368 C 218.578 22.782,220.365 22.951,220.365 22.648 C 220.365 22.197,219.102 21.149,217.705 20.440 C 216.123 19.637,215.050 16.854,216.544 17.427 C 216.783 17.519,217.468 17.685,218.067 17.798 C 218.666 17.910,219.231 18.123,219.322 18.272 C 219.515 18.584,224.418 18.642,224.724 18.335 C 224.838 18.222,225.578 17.914,226.371 17.651 C 227.576 17.251,227.827 17.036,227.908 16.333 C 228.110 14.578,224.969 10.030,223.555 10.030 C 223.305 10.030,223.100 9.894,223.100 9.726 C 223.100 9.559,222.568 9.422,221.918 9.422 L 220.735 9.422 220.623 7.209 C 220.554 5.831,220.340 4.793,220.058 4.462 C 218.402 2.514,217.650 1.840,216.926 1.659 C 216.474 1.545,216.029 1.331,215.937 1.182 C 215.691 0.785,213.601 0.871,213.060 1.301 M269.699 1.614 C 268.600 2.711,268.089 4.011,268.087 5.711 L 268.085 7.319 267.252 6.547 C 266.324 5.687,266.284 5.674,265.684 6.054 C 265.369 6.253,265.309 6.691,265.452 7.736 C 265.656 9.219,265.360 9.346,264.496 8.149 C 264.278 7.847,263.913 7.599,263.686 7.599 C 263.459 7.599,263.217 7.432,263.149 7.227 C 262.848 6.326,258.524 6.544,257.882 7.492 C 256.555 9.452,257.395 16.029,259.043 16.580 C 259.335 16.678,259.574 16.886,259.574 17.042 C 259.574 17.198,259.848 17.325,260.183 17.325 L 260.791 17.325 260.183 18.461 C 258.384 21.818,260.049 27.356,262.858 27.356 C 265.019 27.356,268.777 23.395,269.347 20.518 C 269.418 20.159,269.779 19.956,270.441 19.905 L 271.429 19.828 271.429 21.616 C 271.429 22.677,271.297 23.404,271.105 23.404 C 270.567 23.404,270.911 25.363,271.468 25.469 C 272.370 25.639,272.948 24.680,272.953 23.003 C 272.956 22.137,273.058 21.585,273.181 21.775 C 273.423 22.151,276.612 23.186,276.836 22.961 C 277.359 22.438,276.427 21.346,274.806 20.584 C 273.038 19.753,273.011 19.721,273.055 18.531 C 273.090 17.588,273.200 17.363,273.556 17.506 C 273.807 17.607,274.525 17.762,275.152 17.851 C 275.779 17.940,276.292 18.132,276.292 18.277 C 276.292 18.585,281.259 18.640,281.563 18.335 C 281.676 18.222,282.417 17.914,283.210 17.651 C 284.871 17.100,285.152 16.396,284.371 14.749 C 284.107 14.193,283.891 13.616,283.891 13.467 C 283.891 12.342,280.101 9.422,278.639 9.422 L 277.622 9.422 277.622 7.390 C 277.622 6.091,277.491 5.314,277.261 5.237 C 277.062 5.171,276.900 4.970,276.900 4.791 C 276.900 2.493,271.294 0.021,269.699 1.614 M326.343 1.771 C 325.387 2.769,324.924 4.161,324.924 6.042 L 324.924 7.378 324.123 6.576 C 322.852 5.306,321.969 5.879,322.320 7.747 C 322.430 8.334,322.440 8.815,322.342 8.815 C 322.093 8.815,320.258 7.510,320.000 7.150 C 319.465 6.402,315.281 6.581,314.762 7.373 C 312.901 10.214,314.652 17.309,317.219 17.330 C 317.571 17.333,317.652 17.418,317.435 17.558 C 315.874 18.565,316.171 25.077,317.850 26.633 C 319.381 28.051,323.958 26.396,324.004 24.407 C 324.008 24.207,324.194 23.933,324.415 23.799 C 324.637 23.666,325.204 22.732,325.675 21.724 C 326.552 19.846,326.558 19.843,328.343 20.036 C 328.663 20.071,328.629 21.399,328.298 21.748 C 327.720 22.360,327.564 25.210,328.098 25.415 C 329.025 25.771,329.787 24.674,329.792 22.977 C 329.794 22.125,329.897 21.577,330.020 21.759 C 330.307 22.183,332.095 22.796,333.045 22.796 C 334.146 22.796,333.870 21.570,332.680 21.176 C 332.182 21.010,331.591 20.692,331.367 20.468 C 331.143 20.244,330.776 20.061,330.551 20.061 C 330.026 20.061,329.889 19.626,330.031 18.410 L 330.145 17.433 331.471 17.770 C 332.201 17.955,332.895 18.204,333.015 18.324 C 333.319 18.628,338.113 18.597,338.465 18.288 C 338.624 18.149,339.335 17.870,340.046 17.668 C 343.538 16.675,339.337 9.422,335.269 9.422 C 334.106 9.422,333.682 9.073,334.347 8.663 C 334.727 8.427,334.743 6.854,334.372 6.151 C 334.219 5.861,333.926 5.173,333.722 4.623 C 333.301 3.489,331.166 1.520,330.358 1.520 C 330.064 1.520,329.739 1.383,329.635 1.216 C 329.220 0.543,327.191 0.885,326.343 1.771 M383.207 1.681 C 382.751 2.104,382.300 2.822,382.204 3.277 C 382.108 3.731,381.902 4.341,381.745 4.631 C 381.587 4.921,381.459 5.498,381.459 5.913 C 381.459 6.679,380.688 6.713,380.190 5.969 C 379.768 5.337,379.027 6.443,379.023 7.712 C 379.020 8.402,378.918 8.823,378.795 8.648 C 377.718 7.113,373.271 6.092,371.930 7.072 C 371.187 7.615,370.755 10.955,371.131 13.250 C 371.293 14.237,371.426 15.075,371.427 15.111 C 371.436 15.450,373.422 17.325,373.772 17.325 C 374.083 17.325,374.163 17.495,374.023 17.857 C 373.910 18.150,373.741 18.768,373.648 19.231 C 373.554 19.694,373.359 20.147,373.213 20.237 C 372.869 20.450,372.868 23.319,373.211 23.531 C 373.356 23.620,373.557 24.202,373.658 24.823 C 374.034 27.141,376.670 28.127,378.602 26.672 C 380.152 25.504,382.353 22.795,382.381 22.020 C 382.398 21.551,383.565 19.267,383.576 19.681 C 383.582 19.890,383.939 20.061,384.369 20.061 L 385.152 20.061 384.938 22.796 C 384.820 24.301,384.819 25.532,384.935 25.532 C 385.524 25.532,386.322 24.834,386.322 24.320 C 386.322 23.136,387.003 22.135,387.672 22.336 C 390.782 23.271,391.821 22.293,389.134 20.960 C 386.983 19.894,386.730 19.612,386.867 18.436 L 386.987 17.404 388.251 17.711 C 388.945 17.879,389.644 18.135,389.802 18.279 C 390.172 18.614,394.921 18.623,395.304 18.290 C 395.463 18.152,396.167 17.859,396.869 17.639 C 397.570 17.418,398.208 17.073,398.285 16.872 C 398.490 16.338,397.873 13.678,397.544 13.678 C 397.390 13.678,397.264 13.469,397.264 13.214 C 397.264 12.611,394.684 10.030,394.081 10.030 C 393.826 10.030,393.617 9.894,393.617 9.726 C 393.617 9.559,393.029 9.422,392.310 9.422 L 391.004 9.422 391.128 8.354 C 391.463 5.487,389.657 2.190,387.459 1.656 C 386.998 1.544,386.545 1.331,386.453 1.182 C 386.087 0.590,384.045 0.904,383.207 1.681 M20.469 27.568 C 18.920 29.072,18.555 29.578,17.771 31.307 C 16.705 33.662,16.427 34.178,16.420 33.815 C 16.416 33.606,16.071 33.435,15.653 33.435 C 14.795 33.435,14.726 32.896,15.185 29.787 C 15.604 26.952,14.223 27.141,13.406 30.030 C 13.008 31.437,12.618 31.517,11.029 30.515 C 10.042 29.893,9.119 29.972,9.119 30.677 C 9.119 31.415,9.852 32.162,10.812 32.403 C 11.218 32.505,11.550 32.711,11.550 32.860 C 11.550 33.009,11.710 33.131,11.906 33.131 C 12.671 33.131,13.270 34.035,13.131 34.981 C 12.990 35.940,11.387 36.095,10.502 35.235 C 10.144 34.887,4.255 34.859,4.255 35.205 C 4.255 35.342,3.742 35.582,3.116 35.737 L 1.976 36.019 1.984 37.783 C 1.989 38.753,2.133 39.642,2.305 39.758 C 2.477 39.874,2.786 40.380,2.992 40.881 C 3.352 41.761,5.371 43.465,6.052 43.465 C 6.234 43.465,6.383 43.602,6.383 43.769 C 6.383 43.936,6.930 44.073,7.599 44.073 L 8.815 44.073 8.815 45.730 C 8.815 47.288,9.171 48.554,9.876 49.498 C 10.689 50.586,12.048 51.666,12.817 51.835 C 13.287 51.938,13.749 52.149,13.844 52.303 C 14.556 53.455,17.563 52.041,17.820 50.434 C 17.925 49.777,18.130 49.240,18.276 49.240 C 18.422 49.240,18.552 48.590,18.565 47.796 C 18.578 47.002,18.658 46.524,18.742 46.733 C 19.186 47.832,20.973 47.145,20.973 45.876 L 20.973 44.639 21.855 45.268 C 22.341 45.614,22.829 45.897,22.941 45.897 C 23.052 45.897,23.349 46.102,23.600 46.353 C 25.273 48.026,28.835 46.555,28.936 44.149 C 29.133 39.483,28.009 36.170,26.228 36.170 C 25.915 36.170,25.837 36.002,25.981 35.638 C 26.097 35.346,26.267 34.659,26.359 34.111 C 26.451 33.564,26.644 33.043,26.789 32.953 C 27.132 32.741,27.131 29.872,26.787 29.660 C 26.641 29.570,26.437 29.068,26.332 28.546 C 25.767 25.717,22.873 25.235,20.469 27.568 M383.847 51.431 C 382.670 52.087,382.067 53.049,382.067 54.270 C 382.067 54.680,381.930 55.015,381.763 55.015 C 381.596 55.015,381.459 55.453,381.459 55.988 C 381.459 56.744,381.378 56.879,381.094 56.596 C 380.102 55.604,379.027 56.155,379.027 57.656 L 379.027 59.081 378.430 58.440 C 378.101 58.087,377.554 57.710,377.214 57.602 C 376.874 57.494,376.596 57.287,376.596 57.141 C 376.596 56.759,374.044 56.433,372.832 56.660 C 369.854 57.219,370.489 66.048,373.592 67.239 C 374.085 67.428,373.765 69.801,373.166 70.401 C 372.853 70.713,372.897 73.489,373.218 73.687 C 373.366 73.779,373.573 74.300,373.679 74.845 C 374.136 77.211,377.062 78.167,378.866 76.541 C 379.110 76.320,379.486 75.981,379.701 75.788 C 379.915 75.594,380.365 75.078,380.699 74.641 C 381.033 74.203,381.450 73.677,381.624 73.473 C 381.798 73.268,382.134 72.622,382.371 72.036 C 383.219 69.940,383.385 69.751,384.300 69.856 L 385.166 69.955 384.952 72.439 C 384.834 73.806,384.718 75.058,384.694 75.221 C 384.575 76.031,386.004 75.693,386.187 74.868 C 386.789 72.155,386.855 72.071,388.083 72.437 C 388.703 72.621,389.299 72.900,389.407 73.056 C 389.728 73.519,390.578 73.018,390.578 72.367 C 390.578 71.694,389.510 70.821,388.686 70.821 C 388.389 70.821,388.146 70.700,388.146 70.552 C 388.146 70.404,387.872 70.212,387.538 70.125 C 387.054 69.998,386.930 69.710,386.930 68.716 C 386.930 67.409,387.759 67.199,389.011 68.188 C 389.588 68.645,395.704 68.642,395.987 68.185 C 396.108 67.989,396.576 67.737,397.027 67.623 C 400.513 66.748,395.913 59.271,391.888 59.271 C 391.240 59.271,391.185 59.142,391.185 57.613 C 391.185 56.050,390.818 54.754,390.124 53.863 C 389.084 52.528,387.868 51.643,386.847 51.476 C 386.217 51.372,385.627 51.169,385.538 51.024 C 385.318 50.668,385.137 50.712,383.847 51.431 M21.610 76.567 C 21.208 76.917,20.789 77.204,20.677 77.204 C 20.272 77.204,17.602 81.215,17.428 82.085 C 17.330 82.576,17.130 82.979,16.983 82.979 C 16.837 82.979,16.717 83.160,16.717 83.382 C 16.717 83.661,16.424 83.742,15.770 83.646 L 14.823 83.507 15.025 81.343 C 15.137 80.153,15.302 78.930,15.393 78.625 C 15.529 78.165,15.408 78.087,14.693 78.169 C 13.986 78.250,13.812 78.432,13.730 79.179 C 13.676 79.681,13.505 80.221,13.350 80.380 C 13.196 80.539,13.068 80.949,13.065 81.292 C 13.062 81.661,12.970 81.778,12.837 81.578 C 12.714 81.392,12.101 81.057,11.474 80.833 C 10.847 80.609,10.334 80.316,10.334 80.182 C 10.334 80.049,10.061 79.939,9.726 79.939 C 9.321 79.939,9.119 80.142,9.119 80.547 C 9.119 81.261,10.136 82.371,10.790 82.371 C 11.041 82.371,11.246 82.494,11.246 82.645 C 11.246 82.796,11.657 83.062,12.158 83.237 C 12.974 83.522,13.070 83.688,13.070 84.819 C 13.070 85.885,12.989 86.052,12.552 85.884 C 12.267 85.775,11.446 85.605,10.728 85.507 C 10.010 85.408,9.422 85.210,9.422 85.065 C 9.422 84.921,8.465 84.802,7.295 84.802 C 6.079 84.802,5.167 84.933,5.167 85.106 C 5.167 85.274,4.889 85.410,4.550 85.410 C 4.210 85.410,3.438 85.616,2.835 85.868 L 1.739 86.327 1.909 87.969 C 2.223 91.012,5.338 94.225,7.974 94.225 C 8.781 94.225,8.815 94.287,8.815 95.754 C 8.815 101.277,16.815 105.364,17.817 100.354 C 17.924 99.818,18.131 99.306,18.276 99.216 C 18.422 99.126,18.541 98.492,18.541 97.807 C 18.541 96.598,18.558 96.577,19.126 97.092 C 20.156 98.024,20.808 97.602,20.915 95.936 C 20.992 94.726,21.074 94.546,21.371 94.931 C 22.531 96.435,25.688 97.298,27.595 96.633 C 29.739 95.886,29.439 88.018,27.220 86.799 C 26.006 86.132,25.920 85.945,26.231 84.662 C 26.394 83.987,26.646 83.305,26.790 83.146 C 27.135 82.766,27.128 80.023,26.782 79.809 C 26.634 79.717,26.427 79.184,26.322 78.623 C 25.919 76.479,23.116 75.256,21.610 76.567 M383.043 101.903 C 382.660 102.313,382.265 103.150,382.166 103.763 C 382.066 104.376,381.867 104.951,381.722 105.041 C 381.577 105.130,381.457 105.640,381.454 106.173 C 381.451 106.793,381.360 107.002,381.201 106.751 C 380.516 105.671,379.183 106.176,379.084 107.553 C 378.997 108.768,378.948 108.838,378.476 108.419 C 375.809 106.053,371.770 106.014,371.238 108.350 C 370.337 112.305,371.762 117.325,373.785 117.325 C 374.086 117.325,374.161 117.497,374.019 117.857 C 373.903 118.150,373.733 118.837,373.641 119.384 C 373.549 119.932,373.356 120.453,373.211 120.542 C 372.868 120.754,372.869 123.319,373.212 123.532 C 373.358 123.621,373.563 124.235,373.668 124.895 C 374.124 127.744,377.348 128.242,379.713 125.829 C 381.102 124.412,381.308 124.107,382.588 121.581 C 383.350 120.076,383.522 119.919,384.304 120.008 L 385.173 120.108 384.959 122.440 C 384.840 123.723,384.723 124.906,384.697 125.069 C 384.570 125.881,386.004 125.540,386.184 124.716 C 386.740 122.177,387.085 121.877,388.561 122.646 C 389.039 122.896,389.689 123.100,390.004 123.100 C 391.262 123.100,390.255 121.267,388.754 120.823 C 387.406 120.425,386.734 119.573,386.868 118.429 C 386.990 117.379,387.931 117.168,388.515 118.058 C 389.251 119.182,397.767 118.119,398.290 116.839 C 398.494 116.339,397.866 113.678,397.544 113.678 C 397.390 113.678,397.264 113.468,397.264 113.211 C 397.264 112.468,394.624 110.099,393.537 109.867 C 392.996 109.751,392.384 109.520,392.177 109.353 C 391.970 109.187,391.628 109.116,391.417 109.197 C 391.132 109.306,391.033 108.821,391.033 107.305 C 391.033 102.957,385.531 99.238,383.043 101.903 M20.454 127.659 C 19.592 128.494,18.800 129.451,18.693 129.786 C 18.587 130.121,18.382 130.395,18.237 130.395 C 18.092 130.395,17.881 130.703,17.768 131.079 C 17.149 133.132,16.730 133.635,15.761 133.493 L 14.823 133.355 15.026 131.343 C 15.138 130.237,15.257 129.058,15.290 128.723 C 15.330 128.309,15.167 128.116,14.775 128.116 C 14.128 128.116,13.903 128.465,13.355 130.319 C 12.908 131.828,13.041 131.770,11.785 131.004 C 11.238 130.670,10.405 130.397,9.933 130.396 C 8.415 130.394,8.999 131.535,11.094 132.663 C 12.837 133.602,12.925 133.706,13.078 135.002 L 13.237 136.359 12.318 135.885 C 10.911 135.159,3.780 135.207,2.646 135.949 C 1.110 136.956,2.825 142.857,4.655 142.857 C 4.800 142.857,5.267 143.131,5.692 143.465 C 6.162 143.835,6.925 144.073,7.640 144.073 L 8.815 144.073 8.815 145.725 C 8.815 147.294,9.207 148.890,9.676 149.234 C 9.795 149.321,10.110 149.735,10.376 150.155 C 10.642 150.574,11.255 151.121,11.737 151.370 C 12.219 151.619,12.693 151.929,12.789 152.059 C 13.857 153.503,17.516 152.332,17.817 150.451 C 17.924 149.785,18.130 149.240,18.276 149.240 C 18.422 149.240,18.545 148.590,18.550 147.796 C 18.558 146.668,18.627 146.469,18.869 146.884 C 19.536 148.029,20.973 147.568,20.973 146.210 C 20.973 144.977,21.510 144.782,22.340 145.715 C 23.176 146.653,26.016 147.119,27.870 146.621 C 30.115 146.020,28.881 136.474,26.559 136.474 C 25.845 136.474,26.060 133.717,26.834 132.943 C 27.149 132.628,27.101 130.479,26.766 129.859 C 26.609 129.569,26.402 128.959,26.307 128.504 C 25.732 125.771,22.834 125.353,20.454 127.659 M383.348 151.816 C 382.762 152.308,382.315 153.027,382.195 153.669 C 382.087 154.246,381.877 154.793,381.728 154.885 C 381.580 154.976,381.455 155.556,381.450 156.173 C 381.442 157.083,381.382 157.194,381.131 156.763 C 380.425 155.552,379.070 156.088,378.968 157.619 L 378.875 159.007 378.234 158.406 C 376.730 156.999,372.644 155.853,372.644 156.839 C 372.644 157.006,372.447 157.143,372.206 157.143 C 369.732 157.143,370.899 166.134,373.511 167.195 C 374.039 167.410,374.166 167.624,373.997 168.013 C 373.871 168.304,373.705 168.986,373.629 169.529 C 373.552 170.072,373.368 170.517,373.219 170.517 C 373.070 170.517,372.948 171.201,372.948 172.036 C 372.948 172.872,373.085 173.556,373.252 173.556 C 373.419 173.556,373.556 173.907,373.556 174.336 C 373.556 176.130,374.667 177.180,376.577 177.194 C 377.851 177.203,379.932 176.220,379.937 175.606 C 379.938 175.479,380.281 175.079,380.699 174.715 C 381.117 174.352,381.459 173.874,381.459 173.653 C 381.459 173.433,381.574 173.252,381.714 173.252 C 381.855 173.252,382.150 172.705,382.371 172.036 C 382.592 171.368,382.887 170.821,383.027 170.821 C 383.168 170.821,383.283 170.571,383.283 170.265 C 383.283 169.817,383.464 169.737,384.230 169.849 L 385.178 169.988 384.964 172.456 C 384.846 173.813,384.727 175.058,384.700 175.221 C 384.585 175.908,385.967 175.715,386.155 175.018 C 386.884 172.306,386.991 172.109,387.650 172.276 C 388.006 172.366,388.373 172.552,388.465 172.689 C 388.557 172.827,389.070 173.027,389.605 173.134 C 391.475 173.508,390.945 171.986,388.830 170.910 C 387.140 170.051,387.077 169.974,386.917 168.604 C 386.752 167.186,386.752 167.186,387.443 167.638 C 389.116 168.735,396.169 168.907,396.934 167.870 C 397.032 167.738,397.386 167.473,397.720 167.283 C 400.150 165.897,395.461 159.576,392.001 159.574 L 391.033 159.573 391.033 157.499 C 391.033 153.094,386.134 149.471,383.348 151.816 M22.036 176.304 C 21.869 176.461,21.264 176.965,20.692 177.424 C 19.486 178.391,17.325 181.596,17.325 182.418 C 17.325 182.726,17.188 182.979,17.021 182.979 C 16.854 182.979,16.717 183.184,16.717 183.435 C 16.717 183.743,16.409 183.891,15.766 183.891 L 14.815 183.891 15.033 181.383 C 15.153 180.004,15.273 178.739,15.300 178.571 C 15.327 178.404,15.009 178.267,14.594 178.267 C 14.070 178.267,13.811 178.454,13.750 178.875 C 13.490 180.679,12.989 181.685,12.426 181.538 C 12.111 181.455,11.854 181.281,11.854 181.149 C 11.854 181.018,11.423 180.760,10.897 180.577 C 8.068 179.591,8.670 181.797,11.550 182.972 C 12.135 183.211,12.756 183.594,12.930 183.823 C 13.366 184.397,13.117 186.432,12.656 186.063 C 11.189 184.887,2.736 184.880,2.736 186.054 C 2.736 186.202,2.530 186.322,2.280 186.322 C 1.584 186.322,1.696 188.671,2.460 190.126 C 3.662 192.412,6.208 194.216,8.242 194.223 C 8.631 194.225,8.764 194.653,8.880 196.285 C 9.042 198.549,10.086 200.498,11.550 201.270 C 11.968 201.490,12.403 201.801,12.517 201.959 C 13.464 203.279,17.456 202.299,17.799 200.663 C 17.893 200.215,18.098 199.611,18.255 199.320 C 18.413 199.030,18.541 198.302,18.541 197.703 C 18.541 196.712,18.584 196.657,19.019 197.091 C 20.067 198.139,20.973 197.710,20.973 196.165 L 20.973 194.761 21.960 195.505 C 23.518 196.679,26.034 197.477,26.757 197.025 C 27.082 196.822,27.558 196.657,27.815 196.657 C 28.564 196.657,28.937 195.185,28.932 192.249 C 28.925 188.490,28.233 186.934,26.360 186.464 C 25.777 186.318,25.604 186.145,25.800 185.907 C 25.957 185.718,26.182 185.048,26.299 184.419 C 26.417 183.790,26.634 183.201,26.782 183.109 C 27.130 182.894,27.132 180.394,26.785 179.707 C 26.638 179.417,26.305 178.681,26.045 178.072 C 25.368 176.484,22.970 175.426,22.036 176.304 M383.038 201.944 C 382.653 202.362,382.258 203.193,382.161 203.791 C 382.064 204.389,381.867 204.951,381.722 205.041 C 381.577 205.130,381.457 205.640,381.454 206.173 C 381.451 206.793,381.360 207.002,381.201 206.751 C 380.528 205.689,379.183 206.175,379.086 207.515 C 378.989 208.856,378.611 208.899,377.311 207.716 C 376.664 207.127,373.835 206.331,373.453 206.630 C 373.259 206.782,372.732 206.995,372.283 207.102 C 371.587 207.268,371.430 207.512,371.227 208.740 C 370.473 213.296,371.696 217.325,373.832 217.325 C 374.390 217.325,374.401 217.384,373.996 218.161 C 373.756 218.621,373.559 219.297,373.558 219.663 C 373.557 220.029,373.419 220.413,373.252 220.517 C 372.887 220.743,372.844 223.466,373.199 223.875 C 373.338 224.034,373.623 224.716,373.834 225.390 C 374.509 227.545,376.383 228.185,378.362 226.936 C 379.763 226.052,382.357 223.094,382.381 222.355 C 382.405 221.614,383.516 219.700,383.725 220.038 C 383.889 220.305,384.049 220.307,384.361 220.049 C 384.991 219.526,385.197 220.788,384.875 223.192 C 384.703 224.478,384.713 225.321,384.902 225.510 C 385.380 225.987,386.322 225.298,386.322 224.472 C 386.322 222.640,387.193 221.832,388.280 222.654 C 389.068 223.250,390.578 223.244,390.578 222.644 C 390.578 221.967,389.576 221.091,388.333 220.680 C 387.609 220.441,387.188 220.092,387.100 219.657 C 386.768 218.010,386.730 217.325,386.972 217.325 C 387.116 217.325,387.234 217.443,387.234 217.587 C 387.234 218.689,396.496 218.798,397.233 217.705 C 397.334 217.555,397.648 217.347,397.932 217.243 C 399.018 216.843,397.591 212.947,395.761 211.314 C 394.401 210.100,394.272 210.031,392.715 209.671 L 391.185 209.318 391.185 207.689 C 391.185 205.277,389.372 202.128,387.983 202.128 C 387.766 202.128,387.535 201.967,387.470 201.771 C 387.207 200.984,383.801 201.116,383.038 201.944 M20.211 228.097 C 18.196 230.291,18.131 230.379,17.631 231.611 C 16.778 233.713,16.615 233.896,15.696 233.791 L 14.827 233.692 15.032 231.512 C 15.145 230.312,15.263 229.058,15.294 228.723 C 15.332 228.310,15.166 228.116,14.775 228.116 C 14.128 228.116,13.903 228.465,13.355 230.319 C 12.913 231.813,12.973 231.787,11.738 231.031 C 10.383 230.202,9.313 230.106,9.174 230.803 C 9.038 231.492,10.020 232.447,11.329 232.896 C 12.710 233.371,13.299 234.137,13.137 235.246 C 13.004 236.147,12.047 236.594,11.803 235.868 C 11.513 235.002,3.637 234.968,3.046 235.830 C 2.959 235.958,2.629 236.158,2.314 236.275 C 1.675 236.511,1.766 239.849,2.417 240.066 C 2.592 240.124,2.736 240.319,2.736 240.498 C 2.736 240.980,4.233 242.857,4.617 242.857 C 4.799 242.857,5.114 243.084,5.316 243.360 C 5.552 243.683,6.272 243.912,7.325 243.999 L 8.967 244.135 8.862 245.609 C 8.497 250.763,16.371 255.553,17.673 250.970 C 17.873 250.269,18.149 249.566,18.288 249.407 C 18.427 249.248,18.545 248.496,18.550 247.736 C 18.558 246.648,18.626 246.466,18.869 246.884 C 19.539 248.034,20.973 247.567,20.973 246.201 C 20.973 244.888,21.252 244.700,22.037 245.485 C 24.191 247.639,28.266 247.612,28.762 245.441 C 29.655 241.537,28.485 237.166,26.336 236.373 C 25.938 236.226,25.840 236.010,26.003 235.636 C 26.129 235.345,26.295 234.662,26.371 234.119 C 26.448 233.575,26.632 233.131,26.781 233.131 C 27.141 233.131,27.129 230.530,26.766 229.859 C 26.609 229.569,26.402 228.959,26.306 228.504 C 25.740 225.811,22.510 225.595,20.211 228.097 M384.195 251.283 C 383.231 251.626,382.352 252.748,382.173 253.865 C 382.071 254.505,381.868 255.102,381.723 255.192 C 381.578 255.282,381.455 255.791,381.449 256.325 C 381.441 257.196,381.399 257.241,381.036 256.763 C 380.154 255.601,379.027 256.080,379.027 257.618 L 379.027 259.004 377.626 257.998 C 376.143 256.933,372.540 256.517,371.739 257.318 C 369.956 259.102,371.360 267.173,373.454 267.173 C 374.127 267.173,373.898 269.972,373.166 270.705 C 372.857 271.013,372.895 273.488,373.211 273.683 C 373.356 273.772,373.555 274.340,373.653 274.944 C 374.031 277.276,376.527 278.247,378.510 276.835 C 379.802 275.915,381.459 274.123,381.459 273.645 C 381.459 273.429,381.590 273.252,381.751 273.252 C 381.911 273.252,382.206 272.705,382.407 272.036 C 382.607 271.368,382.886 270.821,383.027 270.821 C 383.168 270.821,383.283 270.639,383.283 270.417 C 383.283 270.140,383.574 270.057,384.214 270.151 L 385.146 270.288 384.933 273.012 L 384.720 275.737 385.442 275.634 C 385.888 275.571,386.197 275.299,386.251 274.924 C 386.568 272.702,386.965 272.100,387.828 272.531 C 389.570 273.400,390.578 273.414,390.578 272.568 C 390.578 271.940,390.263 271.657,388.758 270.935 C 386.755 269.973,385.786 267.398,387.614 267.897 C 387.990 267.999,389.020 268.171,389.902 268.279 C 390.785 268.387,391.579 268.592,391.668 268.736 C 391.892 269.098,393.539 269.064,393.769 268.693 C 393.872 268.526,394.384 268.389,394.907 268.389 C 399.627 268.389,399.362 264.443,394.358 260.218 C 394.083 259.986,393.258 259.729,392.522 259.646 L 391.185 259.495 391.185 257.909 C 391.185 256.220,390.698 254.407,390.244 254.407 C 390.093 254.407,389.970 254.214,389.970 253.978 C 389.970 253.468,388.273 251.976,387.692 251.976 C 387.468 251.976,387.239 251.860,387.183 251.718 C 387.056 251.394,384.805 251.066,384.195 251.283 M21.733 276.658 C 20.292 277.481,17.846 280.592,17.478 282.067 C 17.173 283.290,16.532 283.949,15.754 283.839 C 14.993 283.731,14.889 282.931,15.208 279.635 C 15.361 278.048,14.233 277.341,13.845 278.782 C 12.984 281.985,12.906 282.046,11.281 280.799 C 10.369 280.099,9.119 280.060,9.119 280.732 C 9.119 281.279,10.316 282.661,10.796 282.670 C 11.885 282.688,13.255 284.166,13.135 285.194 C 13.006 286.300,12.350 286.441,11.276 285.594 C 10.488 284.974,4.594 285.170,3.123 285.866 C 0.490 287.113,2.745 293.004,6.152 293.778 C 6.609 293.883,7.062 294.094,7.157 294.248 C 7.253 294.403,7.646 294.529,8.031 294.529 C 8.674 294.529,8.744 294.690,8.891 296.515 C 9.172 300.021,11.319 302.159,14.780 302.379 C 17.017 302.522,17.522 302.246,17.808 300.726 C 17.915 300.156,18.123 299.614,18.272 299.523 C 18.420 299.431,18.541 298.812,18.541 298.148 C 18.541 297.047,18.594 296.967,19.129 297.254 C 20.468 297.971,20.973 297.675,20.973 296.174 L 20.973 294.779 21.908 295.566 C 22.422 295.998,23.026 296.353,23.250 296.353 C 23.474 296.353,23.714 296.521,23.783 296.727 C 23.985 297.334,27.531 297.219,28.164 296.586 C 30.035 294.715,28.770 287.047,26.497 286.476 C 25.971 286.345,25.835 286.158,25.986 285.778 C 26.099 285.492,26.267 284.811,26.359 284.263 C 26.451 283.716,26.644 283.195,26.789 283.105 C 27.157 282.878,27.119 279.939,26.748 279.939 C 26.581 279.939,26.444 279.659,26.444 279.316 C 26.444 277.013,23.760 275.499,21.733 276.658 M77.508 277.561 C 75.685 279.312,74.838 280.466,74.609 281.508 C 74.505 281.983,74.294 282.371,74.140 282.371 C 73.986 282.371,73.860 282.649,73.860 282.988 C 73.860 283.729,73.222 284.025,72.188 283.766 C 71.428 283.575,71.039 281.963,71.692 281.712 C 72.391 281.443,72.410 278.116,71.712 278.116 C 70.768 278.116,70.234 278.961,70.222 280.471 C 70.211 281.978,70.146 281.999,68.541 281.011 C 67.082 280.112,65.953 280.009,65.967 280.775 C 65.982 281.591,66.583 282.189,68.136 282.935 C 69.922 283.793,70.177 284.117,69.996 285.298 C 69.844 286.295,69.144 286.405,68.115 285.594 C 67.282 284.939,61.092 285.168,59.878 285.900 C 56.732 287.796,60.903 294.416,65.330 294.553 C 65.759 294.566,65.938 294.646,65.729 294.730 C 65.301 294.903,65.206 296.836,65.614 297.088 C 65.760 297.178,65.963 297.671,66.065 298.184 C 66.539 300.550,69.168 302.432,72.002 302.432 C 74.359 302.432,75.076 301.372,75.076 297.893 L 75.076 296.238 75.696 296.903 C 76.911 298.207,78.092 297.426,77.639 295.619 C 77.393 294.639,77.593 294.635,78.848 295.593 C 79.396 296.011,79.991 296.353,80.171 296.353 C 80.350 296.353,80.553 296.521,80.621 296.727 C 80.861 297.446,84.264 297.203,85.119 296.406 C 87.083 294.576,85.761 287.469,83.283 286.533 C 82.472 286.227,82.453 286.176,82.891 285.507 C 83.441 284.668,83.747 281.460,83.460 279.545 C 82.962 276.226,79.944 275.220,77.508 277.561 M133.991 277.955 C 132.398 279.573,131.432 281.077,130.714 283.055 C 130.391 283.944,128.617 284.315,128.531 283.511 C 128.421 282.492,128.666 280.354,128.930 280.032 C 129.399 279.457,129.092 278.286,128.440 278.162 C 127.609 278.003,127.052 278.923,127.052 280.453 C 127.052 281.174,126.990 281.763,126.914 281.763 C 126.589 281.763,125.043 280.978,124.674 280.627 C 124.322 280.290,122.796 280.066,122.796 280.350 C 122.796 281.306,123.605 282.390,124.551 282.702 C 126.875 283.469,128.216 286.623,126.015 286.146 C 125.499 286.034,124.978 285.788,124.859 285.600 C 124.478 285.000,118.291 285.159,116.945 285.805 C 115.711 286.396,115.366 288.165,116.105 290.110 C 116.674 291.608,118.598 293.515,119.808 293.780 C 120.277 293.883,120.740 294.094,120.835 294.248 C 120.930 294.403,121.313 294.529,121.684 294.529 C 122.293 294.529,122.363 294.688,122.393 296.125 C 122.435 298.207,123.296 299.755,125.353 301.448 C 126.695 302.554,130.557 302.867,130.914 301.900 C 131.022 301.607,131.254 301.272,131.430 301.155 C 131.606 301.038,131.801 299.924,131.864 298.679 C 131.976 296.457,131.989 296.426,132.554 296.992 C 133.717 298.155,134.727 297.765,134.603 296.201 C 134.484 294.706,134.650 294.550,135.474 295.380 C 137.334 297.251,140.511 297.754,141.958 296.406 C 142.825 295.597,143.140 289.101,142.325 288.830 C 142.116 288.760,141.945 288.543,141.945 288.348 C 141.945 287.837,140.264 286.322,139.698 286.322 C 139.289 286.322,139.311 286.147,139.853 285.107 C 140.587 283.698,140.608 278.939,139.883 278.107 C 139.669 277.861,139.315 277.402,139.098 277.088 C 138.114 275.661,135.874 276.041,133.991 277.955 M192.268 276.652 C 191.238 277.250,189.061 279.667,188.871 280.425 C 188.770 280.826,188.570 281.155,188.426 281.155 C 188.282 281.155,187.989 281.756,187.775 282.490 C 187.561 283.224,187.283 283.839,187.158 283.857 C 187.033 283.876,186.572 283.891,186.134 283.891 L 185.338 283.891 185.555 281.003 C 185.761 278.248,185.743 278.116,185.164 278.116 C 184.492 278.116,183.891 279.428,183.891 280.896 C 183.891 281.373,183.829 281.763,183.753 281.763 C 183.463 281.763,181.907 281.005,181.748 280.786 C 181.656 280.660,181.143 280.469,180.608 280.362 C 178.586 279.957,179.745 282.383,181.788 282.832 C 182.276 282.939,182.675 283.144,182.675 283.286 C 182.675 283.429,182.948 283.632,183.283 283.739 C 183.755 283.888,183.891 284.198,183.891 285.127 C 183.891 286.471,183.607 286.586,182.219 285.805 C 181.130 285.192,174.603 285.018,174.229 285.591 C 174.110 285.775,173.636 286.017,173.176 286.129 C 170.739 286.726,173.839 293.202,176.850 293.805 C 177.379 293.910,177.812 294.117,177.812 294.263 C 177.812 294.409,178.153 294.529,178.571 294.529 C 179.297 294.529,179.331 294.611,179.331 296.331 C 179.331 297.527,179.485 298.286,179.787 298.589 C 180.038 298.840,180.243 299.175,180.243 299.334 C 180.243 300.641,183.488 302.432,185.855 302.432 L 187.535 302.432 188.118 301.140 C 188.439 300.429,188.790 299.198,188.898 298.404 C 189.075 297.110,189.155 296.991,189.664 297.264 C 190.964 297.959,191.450 297.665,191.549 296.125 L 191.641 294.681 192.241 295.365 C 192.571 295.741,193.005 296.049,193.207 296.049 C 193.409 296.049,193.809 296.284,194.096 296.571 C 195.309 297.784,199.088 297.060,199.088 295.614 C 199.088 295.352,199.225 295.137,199.392 295.137 C 199.571 295.137,199.696 294.079,199.696 292.571 C 199.696 291.160,199.559 289.921,199.392 289.818 C 199.225 289.714,199.088 289.369,199.088 289.050 C 199.088 288.349,197.371 286.322,196.777 286.322 C 196.230 286.322,196.241 285.783,196.810 284.692 C 198.921 280.644,195.580 274.730,192.268 276.652 M249.088 276.658 C 247.274 277.695,245.633 279.942,244.349 283.147 C 244.030 283.945,243.851 284.057,243.078 283.943 L 242.178 283.811 242.392 281.343 C 242.510 279.986,242.628 278.742,242.656 278.579 C 242.683 278.415,242.408 278.236,242.045 278.181 C 241.475 278.093,241.310 278.329,240.847 279.889 C 240.290 281.767,240.010 281.920,238.886 280.960 C 238.002 280.206,236.474 280.079,236.474 280.760 C 236.474 281.361,237.639 282.675,238.171 282.675 C 239.252 282.675,240.610 284.173,240.487 285.230 C 240.341 286.480,240.293 286.499,239.058 285.810 C 237.644 285.020,232.200 285.056,230.449 285.866 L 229.136 286.474 229.280 288.214 C 229.365 289.234,229.625 290.155,229.910 290.439 C 230.177 290.706,230.395 291.043,230.395 291.188 C 230.395 291.708,232.692 293.645,233.517 293.820 C 233.980 293.919,234.433 294.119,234.523 294.264 C 234.613 294.410,235.001 294.529,235.387 294.529 C 236.030 294.529,236.100 294.690,236.246 296.511 C 236.527 300.016,238.974 302.432,242.243 302.432 C 244.606 302.432,245.897 300.752,245.897 297.678 C 245.897 297.025,245.978 296.920,246.261 297.204 C 247.243 298.185,248.328 297.644,248.328 296.174 L 248.328 294.779 249.263 295.566 C 249.778 295.998,250.393 296.353,250.631 296.353 C 250.869 296.353,251.064 296.481,251.064 296.638 C 251.064 297.075,253.546 297.348,254.436 297.008 C 256.043 296.396,256.231 295.941,256.231 292.674 C 256.231 288.796,255.411 286.910,253.438 286.252 C 253.112 286.144,253.494 284.492,254.141 283.211 C 254.479 282.542,254.488 280.457,254.155 280.076 C 254.016 279.917,253.737 279.207,253.535 278.497 C 252.995 276.598,250.789 275.685,249.088 276.658 M304.863 277.561 C 303.041 279.312,302.194 280.466,301.965 281.508 C 301.861 281.983,301.664 282.371,301.529 282.371 C 301.393 282.371,301.196 282.713,301.091 283.131 C 300.900 283.892,300.268 284.091,299.265 283.706 C 298.740 283.505,298.606 282.066,299.068 281.596 C 299.656 280.996,299.594 278.299,298.989 278.175 C 298.187 278.012,297.589 278.984,297.578 280.471 C 297.567 281.978,297.501 281.999,295.897 281.011 C 294.422 280.103,293.313 280.009,293.313 280.794 C 293.313 281.493,294.300 282.562,295.202 282.843 C 296.773 283.331,297.458 284.091,297.329 285.201 C 297.201 286.299,296.542 286.439,295.470 285.594 C 294.638 284.939,288.448 285.168,287.234 285.900 C 284.871 287.324,286.653 292.287,290.002 293.611 C 290.569 293.835,291.163 294.133,291.322 294.274 C 291.481 294.414,291.898 294.529,292.249 294.529 C 292.799 294.529,292.870 294.675,292.763 295.595 C 292.692 296.198,292.851 297.109,293.128 297.693 C 293.397 298.260,293.617 298.858,293.617 299.021 C 293.617 300.454,296.902 302.432,299.282 302.432 C 301.650 302.432,302.426 301.275,302.430 297.739 L 302.432 296.238 303.051 296.903 C 304.139 298.071,304.863 297.790,304.863 296.201 C 304.863 294.607,304.893 294.593,306.204 295.593 C 306.752 296.011,307.347 296.353,307.526 296.353 C 307.705 296.353,307.908 296.521,307.977 296.727 C 308.216 297.446,311.620 297.203,312.475 296.406 C 314.439 294.576,313.117 287.469,310.639 286.533 C 309.836 286.230,309.812 286.171,310.234 285.527 C 310.833 284.613,311.102 280.712,310.672 279.179 C 309.783 276.011,307.220 275.297,304.863 277.561 M361.357 277.918 C 360.440 278.849,359.493 279.993,359.253 280.459 C 359.012 280.925,358.725 281.376,358.615 281.459 C 358.505 281.543,358.291 282.090,358.140 282.675 C 357.892 283.631,357.758 283.739,356.820 283.739 L 355.775 283.739 355.879 282.067 C 355.936 281.147,356.118 280.232,356.282 280.032 C 356.755 279.459,356.449 278.286,355.795 278.162 C 354.964 278.003,354.407 278.923,354.407 280.453 C 354.407 281.174,354.345 281.763,354.270 281.763 C 353.945 281.763,352.398 280.978,352.030 280.627 C 351.561 280.179,350.152 280.109,350.152 280.533 C 350.152 281.402,350.957 282.389,351.927 282.709 C 354.231 283.469,355.529 286.613,353.343 286.139 C 352.842 286.031,352.334 285.788,352.215 285.600 C 351.841 285.010,345.649 285.158,344.334 285.789 C 342.088 286.865,342.569 289.938,345.419 292.723 C 345.909 293.201,346.694 293.677,347.163 293.780 C 347.633 293.883,348.095 294.094,348.191 294.248 C 348.286 294.403,348.664 294.529,349.030 294.529 C 349.626 294.530,349.700 294.698,349.734 296.125 C 349.780 298.102,351.392 301.216,352.369 301.216 C 352.534 301.216,352.833 301.440,353.033 301.714 C 353.623 302.521,357.970 302.708,358.255 301.939 C 358.371 301.625,358.599 301.279,358.760 301.171 C 358.922 301.063,359.120 299.951,359.200 298.701 C 359.344 296.452,359.352 296.434,359.935 297.017 C 360.967 298.049,361.858 297.636,361.829 296.138 C 361.812 295.294,361.915 294.928,362.133 295.062 C 362.314 295.173,363.076 295.677,363.827 296.183 C 365.621 297.391,368.146 297.494,369.313 296.406 C 370.230 295.552,370.433 290.496,369.615 288.877 C 368.981 287.621,367.719 286.341,367.107 286.331 C 366.548 286.322,366.679 285.456,367.303 285.041 C 367.788 284.719,367.732 278.675,367.239 278.108 C 367.024 277.861,366.671 277.402,366.454 277.088 C 365.475 275.670,363.205 276.040,361.357 277.918 " stroke="none" fill="RGBA(4, 4, 4, 0.1)" fill-rule="evenodd"></path><path id="path2" d="" stroke="none" fill="RGBA(4, 4, 4, 0.1)" fill-rule="evenodd"></path><path id="path3" d="" stroke="none" fill="RGBA(4, 4, 4, 0.1)" fill-rule="evenodd"></path><path id="path4" d="" stroke="none" fill="RGBA(4, 4, 4, 0.1)" fill-rule="evenodd"></path></g></svg>
