<?xml version="1.0" standalone="no"?>
<!DOCTYPE svg PUBLIC "-//W3C//DTD SVG 20010904//EN"
 "http://www.w3.org/TR/2001/REC-SVG-20010904/DTD/svg10.dtd">
<svg version="1.0" xmlns="http://www.w3.org/2000/svg"
 width="8000.000000pt" height="5895.000000pt" viewBox="0 0 8000.000000 5895.000000"
 preserveAspectRatio="xMidYMid meet">

<g transform="translate(0.000000,5895.000000) scale(0.100000,-0.100000)"
fill="RGBA(4, 4, 4, 0.1)" stroke="none">
<path d="M35295 58534 c-2162 -99 -4353 -933 -6300 -2398 -1660 -1249 -2903
-2940 -3673 -4996 -347 -927 -593 -1943 -677 -2793 -11 -115 -13 -168 -5 -195
5 -20 10 -40 10 -44 0 -4 -46 -29 -102 -56 -268 -129 -508 -334 -713 -607
-142 -188 -232 -348 -280 -495 -15 -47 -123 -366 -241 -710 -450 -1325 -831
-2404 -1214 -3439 -182 -495 -210 -596 -230 -856 -50 -621 222 -1240 794
-1810 385 -384 869 -720 1490 -1036 l268 -137 -1 -118 c-5 -379 175 -756 561
-1172 436 -471 1428 -1166 3088 -2165 173 -104 316 -190 318 -192 2 -2 -57
-37 -130 -79 -715 -408 -1182 -840 -1428 -1321 -31 -60 -64 -129 -73 -152 -9
-24 -22 -43 -27 -43 -6 0 -52 18 -103 39 -941 398 -2150 819 -3182 1106 -1380
384 -2774 629 -3880 681 -95 4 -188 17 -345 49 -1779 361 -3874 620 -5945 735
-1060 58 -1661 68 -3965 65 -1769 -2 -1877 -4 -2320 -35 -1387 -98 -2756 -376
-3765 -765 -538 -207 -966 -430 -1480 -770 -562 -371 -921 -694 -1085 -974
-35 -60 -63 -135 -102 -272 -12 -43 -7 -102 16 -183 51 -182 192 -310 401
-366 214 -56 556 -27 890 76 455 141 813 222 1438 329 659 112 1545 216 2062
240 72 4 144 8 160 10 99 12 618 16 810 6 506 -26 647 -56 919 -195 333 -169
656 -253 1117 -287 156 -11 188 -18 644 -130 264 -64 481 -116 483 -114 1 1
-21 15 -50 30 -191 99 -319 168 -316 170 6 6 439 -45 687 -80 743 -107 1625
-278 3241 -631 1259 -275 1387 -303 1790 -388 979 -205 1678 -327 2185 -381
126 -13 163 -21 230 -50 244 -103 472 -129 881 -101 640 43 1786 44 2579 1
755 -41 1303 -88 1925 -166 1691 -211 3079 -575 4184 -1095 197 -93 236 -117
236 -143 0 -10 -52 -205 -115 -432 -63 -228 -143 -516 -177 -641 -35 -125 -66
-227 -69 -225 -4 1 -72 57 -150 124 -914 780 -2078 1289 -3364 1472 -891 127
-1726 100 -2905 -95 -2056 -338 -4387 -1121 -6050 -2032 -490 -268 -916 -563
-1054 -729 -21 -24 -48 -39 -124 -64 -431 -142 -1052 -439 -1637 -782 -975
-573 -2015 -1341 -3065 -2263 -435 -382 -1230 -1318 -1635 -1924 -275 -412
-453 -777 -508 -1045 -13 -63 -27 -88 -129 -240 -619 -915 -1030 -1972 -1153
-2960 -59 -482 -44 -1035 41 -1470 149 -765 314 -1415 503 -1985 375 -1127
774 -1726 1231 -1846 85 -23 235 -23 319 -1 225 60 381 226 450 480 39 144 46
215 45 462 0 309 -14 444 -123 1230 -143 1033 -156 1425 -65 1985 126 782 482
1797 840 2400 100 168 163 244 244 292 158 95 304 228 476 433 862 1025 3059
2752 4462 3506 l143 77 77 -35 c121 -56 321 -117 542 -167 1650 -365 4068
-640 6030 -683 590 -14 1349 -7 1793 16 70 3 127 4 127 1 0 -3 -120 -154 -267
-335 -688 -850 -1486 -1853 -1884 -2370 -403 -522 -524 -694 -609 -870 -149
-306 -211 -603 -209 -993 l1 -202 -61 -98 c-117 -190 -257 -471 -344 -693
-632 -1601 -525 -3490 308 -5444 232 -545 991 -2101 1425 -2925 1218 -2309
2222 -3759 2978 -4305 l83 -60 73 -140 c215 -411 571 -950 905 -1370 845
-1065 1805 -1822 2824 -2229 65 -26 254 -95 420 -152 166 -58 484 -168 705
-245 222 -78 405 -139 407 -137 2 2 -214 201 -478 443 -722 660 -1102 1042
-1505 1510 -727 846 -1230 1620 -1497 2305 -114 291 -164 486 -176 685 -11
191 -43 379 -124 741 -144 639 -166 750 -199 1029 -38 323 -75 862 -96 1410
-5 149 -12 331 -15 405 -3 74 -12 326 -20 560 -8 234 -17 468 -20 520 -69
1247 -124 1610 -322 2105 -239 595 -837 1724 -1603 3025 -89 151 -162 279
-163 284 -1 4 44 21 100 36 410 112 885 322 1342 592 290 172 734 481 965 672
l69 57 107 -323 c545 -1643 1314 -3154 2214 -4353 995 -1326 2137 -2261 3407
-2788 236 -98 434 -167 478 -167 34 0 64 -16 203 -109 1019 -679 2121 -1118
3073 -1223 154 -17 700 -17 895 0 516 45 808 131 958 281 98 98 138 203 129
339 -4 73 -11 96 -47 171 -36 72 -59 102 -144 186 -144 143 -304 248 -681 448
-583 308 -1163 689 -1646 1083 -515 419 -950 899 -1099 1212 -107 224 -265
417 -476 583 -232 182 -285 226 -434 359 -197 176 -617 600 -830 840 -854 961
-1671 2113 -2250 3174 -80 147 -100 190 -89 197 8 4 47 31 88 61 41 29 145 96
232 149 675 413 1284 929 1920 1629 631 695 1303 1631 1834 2556 l98 170 126
-83 c565 -376 1276 -675 2296 -968 485 -139 1060 -217 2055 -279 721 -45 1129
-57 2174 -63 1006 -6 1746 8 2346 42 47 2 132 7 190 10 737 41 1427 114 1820
191 325 64 997 269 1459 445 533 203 1022 458 1384 721 38 27 70 48 71 46 2
-2 38 -66 81 -143 457 -816 1091 -1728 1664 -2395 700 -815 1390 -1420 2142
-1880 85 -52 187 -117 226 -145 39 -27 79 -55 88 -60 16 -9 5 -33 -97 -220
-583 -1064 -1379 -2187 -2237 -3155 -199 -224 -716 -744 -896 -900 -71 -62
-197 -165 -280 -228 -282 -217 -447 -408 -565 -654 -149 -312 -583 -791 -1099
-1212 -470 -384 -1068 -778 -1631 -1076 -395 -209 -550 -310 -696 -455 -85
-84 -108 -114 -144 -186 -36 -75 -43 -98 -47 -171 -19 -300 214 -490 702 -572
386 -65 983 -84 1330 -42 564 69 1163 246 1783 527 426 193 938 480 1294 725
90 62 114 74 148 74 69 0 472 155 769 295 1663 786 3092 2283 4238 4440 415
780 800 1688 1091 2570 58 176 107 322 108 323 1 2 31 -21 67 -51 114 -96 422
-323 615 -451 568 -379 1129 -652 1647 -801 83 -24 149 -48 148 -52 -1 -5 -68
-121 -149 -258 -762 -1294 -1354 -2407 -1600 -3011 -114 -278 -168 -466 -214
-740 -55 -330 -97 -808 -125 -1414 -3 -69 -8 -172 -10 -230 -3 -58 -10 -242
-15 -410 -6 -168 -12 -363 -15 -435 -3 -71 -10 -249 -15 -395 -21 -551 -53
-1021 -91 -1365 -35 -317 -54 -419 -203 -1080 -82 -362 -114 -549 -125 -740
-7 -114 -17 -179 -41 -270 -203 -780 -754 -1698 -1632 -2720 -402 -468 -778
-845 -1500 -1505 -267 -245 -485 -446 -483 -448 5 -6 1354 464 1510 525 1205
473 2352 1463 3277 2828 188 277 396 623 506 840 37 74 47 85 124 140 672 482
1555 1707 2603 3610 571 1037 1475 2857 1810 3645 823 1937 927 3825 298 5420
-66 168 -231 502 -322 654 l-80 132 0 210 c0 302 -30 502 -112 749 -46 139
-114 286 -186 401 -170 274 -1027 1370 -2366 3029 -169 209 -307 382 -307 385
0 3 57 2 127 -1 444 -23 1203 -30 1793 -16 1844 41 4063 282 5750 623 423 86
658 151 824 228 l75 34 189 -103 c1411 -770 3572 -2473 4416 -3480 171 -204
317 -337 476 -433 81 -48 144 -124 244 -292 318 -535 643 -1413 795 -2150 81
-395 105 -642 98 -1012 -7 -370 -26 -565 -141 -1388 -123 -887 -135 -1253 -51
-1544 88 -304 310 -480 605 -480 216 0 408 97 602 303 453 481 875 1578 1209
3136 128 600 159 845 159 1274 0 898 -236 1807 -715 2756 -156 310 -259 487
-449 775 -126 191 -143 222 -155 280 -35 180 -178 512 -333 770 -276 462 -769
1096 -1333 1715 -314 345 -401 426 -930 868 -914 765 -1784 1390 -2610 1874
-576 338 -1160 619 -1597 768 -125 43 -129 46 -196 113 -484 483 -1886 1202
-3445 1766 -1346 487 -2732 839 -4022 1020 -737 104 -1270 133 -1855 100
-1552 -85 -2961 -628 -4043 -1557 -70 -60 -129 -108 -131 -106 -1 2 -84 299
-184 659 -169 609 -180 656 -164 668 31 24 324 163 532 252 991 424 2239 741
3688 935 681 91 1260 143 2122 190 777 43 1895 42 2585 -1 216 -14 284 -15
405 -5 203 16 376 58 500 121 21 11 81 23 150 30 620 63 1530 230 2995 550
198 43 659 144 1025 224 1616 353 2498 524 3241 631 251 36 681 86 687 80 2
-2 -80 -47 -183 -100 -102 -53 -185 -98 -183 -100 2 -2 210 48 463 111 440
110 468 115 640 130 502 42 805 119 1141 290 190 97 256 120 429 149 698 117
2113 31 3555 -216 596 -102 958 -185 1405 -323 322 -100 671 -132 875 -80 219
55 367 188 416 375 33 123 15 241 -60 394 -88 181 -242 359 -506 586 -262 225
-804 590 -1207 813 -776 428 -1844 768 -3063 976 -616 104 -1154 164 -1905
211 -226 14 -3600 20 -4325 8 -2503 -43 -5196 -320 -7425 -763 -295 -59 -396
-75 -500 -80 -987 -48 -2176 -241 -3395 -552 -1194 -304 -2545 -761 -3745
-1267 -71 -30 -133 -53 -136 -51 -14 8 -51 126 -43 133 5 5 133 104 284 222
1216 944 2330 1870 3030 2519 196 181 587 572 693 693 450 512 680 968 703
1395 6 98 -11 272 -31 323 -4 12 27 38 127 105 977 656 1665 1436 1908 2164
85 256 105 382 105 670 -1 217 -3 245 -28 363 -57 268 -113 396 -412 947 -472
869 -1275 2414 -1835 3529 -213 423 -255 486 -475 707 -275 276 -562 452 -870
533 l-40 10 3 58 c7 123 -172 743 -360 1247 -744 2003 -1988 3761 -3546 5015
-621 499 -1261 903 -2047 1291 -1539 760 -3072 1173 -4645 1251 -260 13 -910
7 -1125 -11 -634 -51 -1157 -141 -1600 -275 -64 -20 -144 -49 -177 -66 -81
-41 -158 -115 -199 -192 -33 -60 -34 -66 -34 -172 0 -105 1 -113 33 -174 40
-76 114 -157 197 -216 204 -145 607 -301 1200 -465 465 -128 618 -180 950
-322 1221 -522 2881 -1576 4023 -2555 702 -602 1163 -1138 1281 -1490 33 -99
29 -158 -20 -250 -140 -266 -353 -445 -614 -514 -115 -30 -298 -31 -419 -1
-290 72 -553 278 -736 577 -24 39 -82 150 -130 247 l-86 177 -129 -76 c-220
-128 -348 -179 -533 -209 -115 -19 -294 -14 -387 11 -201 54 -386 198 -527
411 -44 66 -139 249 -192 368 -14 31 -29 56 -33 56 -5 0 -69 -13 -143 -29
-248 -55 -350 -65 -645 -66 -283 0 -384 10 -567 56 -300 75 -535 223 -668 419
-23 34 -94 168 -157 296 -63 129 -116 234 -118 234 -1 0 -69 -81 -150 -180
-81 -99 -168 -195 -194 -214 -118 -86 -241 -126 -406 -133 -281 -12 -553 83
-934 326 l-171 110 -378 -378 c-467 -468 -691 -666 -854 -753 -201 -107 -311
-314 -278 -524 22 -140 87 -259 205 -378 197 -199 460 -321 910 -421 1203
-269 2739 -743 3816 -1179 563 -227 1092 -479 1454 -691 926 -542 2272 -1507
3868 -2773 l307 -243 1 -57 c1 -113 24 -279 55 -400 49 -188 128 -372 255
-592 316 -546 578 -1321 728 -2150 173 -952 170 -1801 -7 -2344 l-36 -111
-100 -108 c-649 -702 -1231 -1390 -1817 -2147 -180 -232 -586 -777 -723 -969
-61 -84 -115 -155 -122 -158 -7 -2 -97 23 -201 57 -1170 382 -2896 770 -4413
990 -118 17 -223 35 -233 38 -14 6 200 199 995 899 557 490 1045 917 1083 949
246 202 577 416 814 526 215 100 370 147 588 178 319 46 568 139 823 307 528
348 903 946 986 1568 22 165 14 449 -16 590 -63 296 -191 541 -389 747 -228
238 -525 405 -844 475 -130 28 -418 26 -557 -5 -657 -147 -1239 -748 -1548
-1602 -73 -200 -123 -406 -162 -664 -39 -255 -88 -363 -230 -506 -84 -85 -121
-116 -460 -380 -370 -288 -594 -502 -1909 -1817 l-1044 -1045 -316 26 c-944
78 -1266 91 -2256 90 -1091 -1 -1475 -17 -2695 -115 l-145 -12 -1100 1100
c-1031 1031 -1386 1376 -1615 1573 -52 44 -212 172 -354 283 -143 111 -294
236 -336 277 -147 144 -205 261 -240 480 -74 465 -166 761 -349 1116 -335 651
-835 1083 -1391 1201 -120 25 -411 25 -530 0 -289 -62 -579 -214 -794 -418
-227 -215 -383 -498 -446 -814 -27 -130 -36 -384 -21 -530 77 -717 550 -1407
1186 -1732 195 -99 387 -158 628 -193 78 -11 185 -32 237 -46 315 -83 732
-314 1110 -613 52 -41 560 -484 1129 -985 l1033 -909 -363 -53 c-592 -86
-1046 -161 -1576 -260 l-243 -45 -62 68 c-1103 1194 -2340 2361 -3411 3218
l-149 118 -58 121 c-319 658 -424 1864 -269 3091 70 553 181 1011 352 1445
127 323 166 493 174 755 3 113 1 207 -6 253 l-11 74 237 251 c1520 1607 2918
2930 3698 3499 606 442 1408 912 2370 1387 799 396 1701 792 2380 1046 575
215 903 507 962 856 14 82 14 99 0 170 -21 109 -56 179 -124 250 -67 70 -100
92 -238 152 -56 23 -141 67 -190 97 -226 135 -627 421 -984 702 -90 72 -169
132 -176 134 -6 3 -52 -30 -101 -74 -223 -197 -363 -298 -530 -383 -237 -120
-481 -160 -678 -109 -126 32 -196 78 -383 249 l-168 154 -81 -249 c-44 -137
-96 -278 -114 -314 -162 -322 -516 -540 -1028 -635 -282 -52 -621 -64 -906
-32 -16 2 -28 -26 -81 -188 -69 -210 -110 -304 -183 -415 -129 -198 -302 -322
-516 -369 -118 -27 -185 -31 -325 -20 -155 12 -255 38 -449 115 -91 35 -166
63 -167 62 -2 -2 -30 -88 -64 -193 -33 -104 -81 -234 -105 -288 -127 -281
-361 -524 -605 -627 -192 -82 -428 -95 -616 -33 -204 66 -430 249 -540 437
-26 45 -27 52 -23 139 12 222 188 577 503 1017 721 1006 2173 2391 3497 3337
571 408 987 651 1468 858 658 283 1032 491 1230 681 184 178 232 357 143 534
-54 109 -159 188 -299 224 -86 22 -311 53 -524 71 -176 16 -763 27 -945 19z"/>
</g>
</svg>
